# MagicaVoxel @ Ephtracy

# group
g Child_Real

# material
mtllib Child_Real.mtl
usemtl palette

# normals
vn -1 0 0
vn 1 0 0
vn 0 0 1
vn 0 0 -1
vn 0 -1 0
vn 0 1 0

# texcoords
vt 0.0332031 0.5
vt 0.705078 0.5
vt 0.708984 0.5
vt 0.798828 0.5
vt 0.857422 0.5
vt 0.958984 0.5
vt 0.978516 0.5
vt 0.994141 0.5

# verts
v -14 12 5
v -14 12 3
v -14 14 5
v -14 14 3
v -8 19 5
v -8 19 3
v -8 21 5
v -8 21 3
v -7 16 7
v -7 16 1
v -7 17 8
v -7 17 7
v -7 17 1
v -7 17 -0
v -7 19 5
v -7 19 3
v -7 19 2
v -7 19 -0
v -7 20 3
v -7 20 2
v -7 21 5
v -7 21 3
v -7 22 8
v -7 22 7
v -7 23 7
v -7 23 5
v -7 23 1
v -7 23 -0
v -7 24 7
v -7 24 1
v -6 0 7
v -6 0 3
v -6 1 7
v -6 1 5
v -6 1 3
v -6 8 6
v -6 8 5
v -6 8 3
v -6 8 2
v -6 9 6
v -6 9 2
v -6 10 6
v -6 10 2
v -6 12 5
v -6 12 3
v -6 14 6
v -6 14 5
v -6 14 3
v -6 14 2
v -6 15 5
v -6 15 3
v -6 16 8
v -6 16 7
v -6 16 1
v -6 16 -0
v -6 17 8
v -6 17 7
v -6 17 1
v -6 17 -0
v -6 22 8
v -6 22 7
v -6 23 8
v -6 23 7
v -6 23 1
v -6 23 -0
v -6 24 8
v -6 24 7
v -6 24 6
v -6 24 2
v -6 24 1
v -6 24 -0
v -6 25 6
v -6 25 2
v -5 7 6
v -5 7 5
v -5 7 3
v -5 7 2
v -5 8 6
v -5 8 5
v -5 8 3
v -5 8 2
v -5 14 6
v -5 14 5
v -5 14 3
v -5 14 2
v -5 15 6
v -5 15 5
v -5 15 3
v -5 15 2
v -4 15 5
v -4 15 3
v -4 16 5
v -4 16 3
v -4 18 9
v -4 18 8
v -4 19 8
v -4 20 9
v -4 20 8
v -2 0 7
v -2 0 3
v -2 1 7
v -2 1 5
v -2 1 3
v -2 7 5
v -2 7 3
v -4 0 7
v -4 0 3
v -4 1 7
v -4 1 5
v -4 1 3
v -4 7 5
v -4 7 3
v -2 15 5
v -2 15 3
v -2 16 5
v -2 16 3
v -2 18 9
v -2 18 8
v -2 19 8
v -2 20 9
v -2 20 8
v -1 7 6
v -1 7 5
v -1 7 3
v -1 7 2
v -1 8 6
v -1 8 5
v -1 8 3
v -1 8 2
v -1 14 6
v -1 14 5
v -1 14 3
v -1 14 2
v -1 15 6
v -1 15 5
v -1 15 3
v -1 15 2
v -1 24 6
v -1 24 2
v -1 25 6
v -1 25 2
v 0 0 7
v 0 0 3
v 0 1 7
v 0 1 5
v 0 1 3
v 0 8 6
v 0 8 5
v 0 8 3
v 0 8 2
v 0 9 6
v 0 9 2
v 0 10 6
v 0 10 2
v 0 12 5
v 0 12 3
v 0 14 6
v 0 14 5
v 0 14 3
v 0 14 2
v 0 15 5
v 0 15 3
v 0 16 8
v 0 16 7
v 0 16 1
v 0 16 -0
v 0 17 8
v 0 17 7
v 0 17 1
v 0 17 -0
v 0 22 8
v 0 22 7
v 0 23 8
v 0 23 7
v 0 23 1
v 0 23 -0
v 0 24 8
v 0 24 7
v 0 24 1
v 0 24 -0
v 1 16 7
v 1 16 1
v 1 17 8
v 1 17 7
v 1 17 1
v 1 17 -0
v 1 19 5
v 1 19 3
v 1 19 2
v 1 19 -0
v 1 20 3
v 1 20 2
v 1 21 5
v 1 21 3
v 1 22 8
v 1 22 7
v 1 23 7
v 1 23 5
v 1 23 1
v 1 23 -0
v 1 24 7
v 1 24 1
v 2 19 5
v 2 19 3
v 2 21 5
v 2 21 3
v 8 12 5
v 8 12 3
v 8 14 5
v 8 14 3
v -4 18 9
v -4 20 9
v -2 18 9
v -2 20 9
v -7 17 8
v -7 22 8
v -6 16 8
v -6 17 8
v -6 19 8
v -6 21 8
v -6 22 8
v -6 23 8
v -6 24 8
v -5 19 8
v -5 20 8
v -4 17 8
v -4 18 8
v -4 19 8
v -4 20 8
v -4 21 8
v -4 22 8
v -2 17 8
v -2 18 8
v -2 19 8
v -2 20 8
v -2 21 8
v -2 22 8
v -1 19 8
v -1 20 8
v 0 16 8
v 0 17 8
v 0 19 8
v 0 21 8
v 0 22 8
v 0 23 8
v 0 24 8
v 1 17 8
v 1 22 8
v -7 16 7
v -7 17 7
v -7 22 7
v -7 23 7
v -7 24 7
v -6 0 7
v -6 1 7
v -6 16 7
v -6 17 7
v -6 22 7
v -6 23 7
v -6 24 7
v -4 0 7
v -4 1 7
v -2 0 7
v -2 1 7
v 0 0 7
v 0 1 7
v 0 16 7
v 0 17 7
v 0 22 7
v 0 23 7
v 0 24 7
v 1 16 7
v 1 17 7
v 1 22 7
v 1 23 7
v 1 24 7
v -6 8 6
v -6 9 6
v -6 10 6
v -6 14 6
v -6 24 6
v -6 25 6
v -5 7 6
v -5 8 6
v -5 14 6
v -5 15 6
v -4 13 6
v -4 14 6
v -2 13 6
v -2 14 6
v -1 7 6
v -1 8 6
v -1 14 6
v -1 15 6
v -1 24 6
v -1 25 6
v 0 8 6
v 0 9 6
v 0 10 6
v 0 14 6
v -14 12 5
v -14 14 5
v -9 12 5
v -9 14 5
v -8 19 5
v -8 21 5
v -7 19 5
v -7 21 5
v -6 1 5
v -6 8 5
v -6 12 5
v -6 14 5
v -6 15 5
v -5 7 5
v -5 8 5
v -5 14 5
v -5 15 5
v -4 1 5
v -4 7 5
v -4 15 5
v -4 16 5
v -2 1 5
v -2 7 5
v -2 15 5
v -2 16 5
v -1 7 5
v -1 8 5
v -1 14 5
v -1 15 5
v 0 1 5
v 0 8 5
v 0 12 5
v 0 14 5
v 0 15 5
v 1 19 5
v 1 21 5
v 2 19 5
v 2 21 5
v 3 12 5
v 3 14 5
v 8 12 5
v 8 14 5
v -14 12 3
v -14 14 3
v -9 12 3
v -9 14 3
v -8 19 3
v -8 21 3
v -7 19 3
v -7 20 3
v -7 21 3
v -6 0 3
v -6 1 3
v -6 8 3
v -6 12 3
v -6 14 3
v -6 15 3
v -5 7 3
v -5 8 3
v -5 14 3
v -5 15 3
v -4 0 3
v -4 1 3
v -4 7 3
v -4 15 3
v -4 16 3
v -2 0 3
v -2 1 3
v -2 7 3
v -2 15 3
v -2 16 3
v -1 7 3
v -1 8 3
v -1 14 3
v -1 15 3
v 0 0 3
v 0 1 3
v 0 8 3
v 0 12 3
v 0 14 3
v 0 15 3
v 1 19 3
v 1 20 3
v 1 21 3
v 2 19 3
v 2 21 3
v 3 12 3
v 3 14 3
v 8 12 3
v 8 14 3
v -6 8 2
v -6 9 2
v -6 10 2
v -6 14 2
v -6 24 2
v -6 25 2
v -5 7 2
v -5 8 2
v -5 14 2
v -5 15 2
v -1 7 2
v -1 8 2
v -1 14 2
v -1 15 2
v -1 24 2
v -1 25 2
v 0 8 2
v 0 9 2
v 0 10 2
v 0 14 2
v -7 16 1
v -7 17 1
v -7 23 1
v -7 24 1
v -6 16 1
v -6 17 1
v -6 23 1
v -6 24 1
v 0 16 1
v 0 17 1
v 0 23 1
v 0 24 1
v 1 16 1
v 1 17 1
v 1 23 1
v 1 24 1
v -7 17 -0
v -7 19 -0
v -7 23 -0
v -6 16 -0
v -6 17 -0
v -6 18 -0
v -6 19 -0
v -6 23 -0
v -6 24 -0
v -5 17 -0
v -5 18 -0
v -1 17 -0
v -1 18 -0
v 0 16 -0
v 0 17 -0
v 0 18 -0
v 0 19 -0
v 0 23 -0
v 0 24 -0
v 1 17 -0
v 1 19 -0
v 1 23 -0
v -6 0 7
v -4 0 7
v -2 0 7
v 0 0 7
v -6 0 3
v -4 0 3
v -2 0 3
v 0 0 3
v -5 7 6
v -1 7 6
v -5 7 5
v -4 7 5
v -2 7 5
v -1 7 5
v -5 7 3
v -4 7 3
v -2 7 3
v -1 7 3
v -5 7 2
v -1 7 2
v -6 8 6
v -5 8 6
v -1 8 6
v 0 8 6
v -6 8 5
v -5 8 5
v -1 8 5
v 0 8 5
v -6 8 3
v -5 8 3
v -1 8 3
v 0 8 3
v -6 8 2
v -5 8 2
v -1 8 2
v 0 8 2
v -14 12 5
v -9 12 5
v -6 12 5
v 0 12 5
v 3 12 5
v 8 12 5
v -14 12 3
v -9 12 3
v -6 12 3
v 0 12 3
v 3 12 3
v 8 12 3
v -6 16 8
v 0 16 8
v -7 16 7
v -6 16 7
v 0 16 7
v 1 16 7
v -4 16 5
v -2 16 5
v -4 16 3
v -2 16 3
v -7 16 1
v -6 16 1
v 0 16 1
v 1 16 1
v -6 16 -0
v 0 16 -0
v -7 17 8
v -6 17 8
v 0 17 8
v 1 17 8
v -7 17 7
v -6 17 7
v 0 17 7
v 1 17 7
v -7 17 1
v -6 17 1
v 0 17 1
v 1 17 1
v -7 17 -0
v -6 17 -0
v 0 17 -0
v 1 17 -0
v -4 18 9
v -2 18 9
v -4 18 8
v -2 18 8
v -8 19 5
v -7 19 5
v 1 19 5
v 2 19 5
v -8 19 3
v -7 19 3
v 1 19 3
v 2 19 3
v -6 1 7
v -4 1 7
v -2 1 7
v 0 1 7
v -6 1 5
v -4 1 5
v -2 1 5
v 0 1 5
v -6 14 6
v -5 14 6
v -1 14 6
v 0 14 6
v -14 14 5
v -9 14 5
v -6 14 5
v -5 14 5
v -1 14 5
v 0 14 5
v 3 14 5
v 8 14 5
v -14 14 3
v -9 14 3
v -6 14 3
v -5 14 3
v -1 14 3
v 0 14 3
v 3 14 3
v 8 14 3
v -6 14 2
v -5 14 2
v -1 14 2
v 0 14 2
v -5 15 6
v -1 15 6
v -6 15 5
v -5 15 5
v -4 15 5
v -2 15 5
v -1 15 5
v 0 15 5
v -6 15 3
v -5 15 3
v -4 15 3
v -2 15 3
v -1 15 3
v 0 15 3
v -5 15 2
v -1 15 2
v -4 20 9
v -2 20 9
v -4 20 8
v -2 20 8
v -8 21 5
v -7 21 5
v 1 21 5
v 2 21 5
v -8 21 3
v -7 21 3
v 1 21 3
v 2 21 3
v -7 22 8
v -6 22 8
v 0 22 8
v 1 22 8
v -7 22 7
v -6 22 7
v 0 22 7
v 1 22 7
v -7 23 1
v -6 23 1
v 0 23 1
v 1 23 1
v -7 23 -0
v -6 23 -0
v 0 23 -0
v 1 23 -0
v -6 24 8
v 0 24 8
v -7 24 7
v -6 24 7
v 0 24 7
v 1 24 7
v -6 24 6
v -1 24 6
v -6 24 2
v -1 24 2
v -7 24 1
v -6 24 1
v 0 24 1
v 1 24 1
v -6 24 -0
v 0 24 -0
v -6 25 6
v -1 25 6
v -6 25 2
v -1 25 2

# faces
f 3/1/1 2/1/1 1/1/1
f 4/1/1 2/1/1 3/1/1
f 7/1/1 6/1/1 5/1/1
f 8/1/1 6/1/1 7/1/1
f 12/1/1 10/1/1 9/1/1
f 13/1/1 10/1/1 12/1/1
f 15/1/1 12/1/1 11/1/1
f 15/1/1 14/1/1 13/1/1
f 15/1/1 13/1/1 12/1/1
f 16/1/1 14/1/1 15/1/1
f 17/1/1 14/1/1 16/1/1
f 18/1/1 14/1/1 17/1/1
f 19/1/1 17/1/1 16/1/1
f 20/8/1 18/8/1 17/8/1
f 20/1/1 17/1/1 19/1/1
f 21/1/1 15/1/1 11/1/1
f 22/8/1 20/8/1 19/8/1
f 23/1/1 21/1/1 11/1/1
f 24/1/1 21/1/1 23/1/1
f 25/1/1 21/1/1 24/1/1
f 26/8/1 22/8/1 21/8/1
f 26/1/1 21/1/1 25/1/1
f 27/8/1 18/8/1 20/8/1
f 27/8/1 22/8/1 26/8/1
f 27/8/1 20/8/1 22/8/1
f 28/8/1 18/8/1 27/8/1
f 29/8/1 26/8/1 25/8/1
f 29/8/1 27/8/1 26/8/1
f 30/8/1 27/8/1 29/8/1
f 33/1/1 32/1/1 31/1/1
f 34/1/1 32/1/1 33/1/1
f 35/1/1 32/1/1 34/1/1
f 37/4/1 35/4/1 34/4/1
f 38/4/1 35/4/1 37/4/1
f 40/4/1 38/4/1 37/4/1
f 40/4/1 39/4/1 38/4/1
f 40/4/1 37/4/1 36/4/1
f 41/4/1 39/4/1 40/4/1
f 42/5/1 41/5/1 40/5/1
f 43/5/1 41/5/1 42/5/1
f 44/3/1 43/3/1 42/3/1
f 45/3/1 43/3/1 44/3/1
f 46/3/1 44/3/1 42/3/1
f 47/3/1 44/3/1 46/3/1
f 48/3/1 43/3/1 45/3/1
f 49/3/1 43/3/1 48/3/1
f 50/3/1 48/3/1 47/3/1
f 51/3/1 48/3/1 50/3/1
f 56/1/1 53/1/1 52/1/1
f 57/1/1 53/1/1 56/1/1
f 58/1/1 55/1/1 54/1/1
f 59/1/1 55/1/1 58/1/1
f 62/1/1 61/1/1 60/1/1
f 63/1/1 61/1/1 62/1/1
f 66/8/1 63/8/1 62/8/1
f 67/8/1 63/8/1 66/8/1
f 70/8/1 65/8/1 64/8/1
f 71/8/1 65/8/1 70/8/1
f 72/8/1 69/8/1 68/8/1
f 73/8/1 69/8/1 72/8/1
f 78/4/1 75/4/1 74/4/1
f 79/4/1 75/4/1 78/4/1
f 80/4/1 77/4/1 76/4/1
f 81/4/1 77/4/1 80/4/1
f 86/1/1 83/1/1 82/1/1
f 87/1/1 83/1/1 86/1/1
f 88/3/1 85/3/1 84/3/1
f 89/3/1 85/3/1 88/3/1
f 92/1/1 91/1/1 90/1/1
f 93/1/1 91/1/1 92/1/1
f 96/1/1 95/1/1 94/1/1
f 97/1/1 96/1/1 94/1/1
f 98/1/1 96/1/1 97/1/1
f 101/1/1 100/1/1 99/1/1
f 102/1/1 100/1/1 101/1/1
f 103/1/1 100/1/1 102/1/1
f 104/4/1 103/4/1 102/4/1
f 105/4/1 103/4/1 104/4/1
f 106/1/2 107/1/2 108/1/2
f 108/1/2 107/1/2 109/1/2
f 109/1/2 107/1/2 110/1/2
f 109/4/2 110/4/2 111/4/2
f 111/4/2 110/4/2 112/4/2
f 113/1/2 114/1/2 115/1/2
f 115/1/2 114/1/2 116/1/2
f 117/1/2 118/1/2 119/1/2
f 117/1/2 119/1/2 120/1/2
f 120/1/2 119/1/2 121/1/2
f 122/4/2 123/4/2 126/4/2
f 126/4/2 123/4/2 127/4/2
f 124/4/2 125/4/2 128/4/2
f 128/4/2 125/4/2 129/4/2
f 130/1/2 131/1/2 134/1/2
f 134/1/2 131/1/2 135/1/2
f 132/3/2 133/3/2 136/3/2
f 136/3/2 133/3/2 137/3/2
f 138/8/2 139/8/2 140/8/2
f 140/8/2 139/8/2 141/8/2
f 142/1/2 143/1/2 144/1/2
f 144/1/2 143/1/2 145/1/2
f 145/1/2 143/1/2 146/1/2
f 145/4/2 146/4/2 148/4/2
f 148/4/2 146/4/2 149/4/2
f 148/4/2 149/4/2 151/4/2
f 149/4/2 150/4/2 151/4/2
f 147/4/2 148/4/2 151/4/2
f 151/4/2 150/4/2 152/4/2
f 151/5/2 152/5/2 153/5/2
f 153/5/2 152/5/2 154/5/2
f 153/3/2 154/3/2 155/3/2
f 155/3/2 154/3/2 156/3/2
f 153/3/2 155/3/2 157/3/2
f 157/3/2 155/3/2 158/3/2
f 156/3/2 154/3/2 159/3/2
f 159/3/2 154/3/2 160/3/2
f 158/3/2 159/3/2 161/3/2
f 161/3/2 159/3/2 162/3/2
f 163/1/2 164/1/2 167/1/2
f 167/1/2 164/1/2 168/1/2
f 165/1/2 166/1/2 169/1/2
f 169/1/2 166/1/2 170/1/2
f 171/1/2 172/1/2 173/1/2
f 173/1/2 172/1/2 174/1/2
f 173/8/2 174/8/2 177/8/2
f 177/8/2 174/8/2 178/8/2
f 175/8/2 176/8/2 179/8/2
f 179/8/2 176/8/2 180/8/2
f 181/1/2 182/1/2 184/1/2
f 184/1/2 182/1/2 185/1/2
f 183/1/2 184/1/2 187/1/2
f 185/1/2 186/1/2 187/1/2
f 184/1/2 185/1/2 187/1/2
f 187/1/2 186/1/2 188/1/2
f 188/1/2 186/1/2 189/1/2
f 189/1/2 186/1/2 190/1/2
f 188/1/2 189/1/2 191/1/2
f 189/8/2 190/8/2 192/8/2
f 191/1/2 189/1/2 192/1/2
f 183/1/2 187/1/2 193/1/2
f 191/8/2 192/8/2 194/8/2
f 183/1/2 193/1/2 195/1/2
f 195/1/2 193/1/2 196/1/2
f 196/1/2 193/1/2 197/1/2
f 193/8/2 194/8/2 198/8/2
f 197/1/2 193/1/2 198/1/2
f 192/8/2 190/8/2 199/8/2
f 198/8/2 194/8/2 199/8/2
f 194/8/2 192/8/2 199/8/2
f 199/8/2 190/8/2 200/8/2
f 197/8/2 198/8/2 201/8/2
f 198/8/2 199/8/2 201/8/2
f 201/8/2 199/8/2 202/8/2
f 203/1/2 204/1/2 205/1/2
f 205/1/2 204/1/2 206/1/2
f 207/1/2 208/1/2 209/1/2
f 209/1/2 208/1/2 210/1/2
f 213/1/3 212/1/3 211/1/3
f 214/1/3 212/1/3 213/1/3
f 218/1/3 216/1/3 215/1/3
f 219/1/3 216/1/3 218/1/3
f 220/1/3 216/1/3 219/1/3
f 221/1/3 216/1/3 220/1/3
f 224/1/3 218/1/3 217/1/3
f 224/1/3 219/1/3 218/1/3
f 224/6/3 220/6/3 219/6/3
f 225/6/3 220/6/3 224/6/3
f 226/1/3 224/1/3 217/1/3
f 227/1/3 224/1/3 226/1/3
f 228/2/3 225/2/3 224/2/3
f 228/1/3 224/1/3 227/1/3
f 229/6/3 220/6/3 225/6/3
f 229/2/3 225/2/3 228/2/3
f 230/8/3 221/8/3 220/8/3
f 230/6/3 220/6/3 229/6/3
f 231/1/3 222/1/3 221/1/3
f 231/8/3 221/8/3 230/8/3
f 232/7/3 227/7/3 226/7/3
f 232/1/3 226/1/3 217/1/3
f 233/7/3 227/7/3 232/7/3
f 235/1/3 230/1/3 229/1/3
f 235/1/3 231/1/3 230/1/3
f 236/1/3 231/1/3 235/1/3
f 237/1/3 222/1/3 231/1/3
f 237/1/3 231/1/3 236/1/3
f 238/1/3 234/1/3 233/1/3
f 238/1/3 233/1/3 232/1/3
f 238/2/3 235/2/3 234/2/3
f 239/6/3 236/6/3 235/6/3
f 239/2/3 235/2/3 238/2/3
f 240/1/3 238/1/3 232/1/3
f 240/1/3 232/1/3 217/1/3
f 241/1/3 238/1/3 240/1/3
f 242/6/3 239/6/3 238/6/3
f 242/1/3 238/1/3 241/1/3
f 243/6/3 236/6/3 239/6/3
f 243/6/3 239/6/3 242/6/3
f 243/8/3 237/8/3 236/8/3
f 244/1/3 222/1/3 237/1/3
f 244/8/3 237/8/3 243/8/3
f 245/8/3 223/8/3 222/8/3
f 245/1/3 222/1/3 244/1/3
f 246/8/3 223/8/3 245/8/3
f 247/1/3 244/1/3 243/1/3
f 247/1/3 243/1/3 242/1/3
f 247/1/3 242/1/3 241/1/3
f 248/1/3 244/1/3 247/1/3
f 256/1/3 250/1/3 249/1/3
f 257/1/3 250/1/3 256/1/3
f 258/1/3 252/1/3 251/1/3
f 259/8/3 253/8/3 252/8/3
f 259/1/3 252/1/3 258/1/3
f 260/8/3 253/8/3 259/8/3
f 261/1/3 255/1/3 254/1/3
f 262/1/3 255/1/3 261/1/3
f 265/1/3 264/1/3 263/1/3
f 266/1/3 264/1/3 265/1/3
f 272/1/3 268/1/3 267/1/3
f 273/1/3 268/1/3 272/1/3
f 274/1/3 270/1/3 269/1/3
f 275/8/3 271/8/3 270/8/3
f 275/1/3 270/1/3 274/1/3
f 276/8/3 271/8/3 275/8/3
f 284/4/3 278/4/3 277/4/3
f 285/3/3 280/3/3 279/3/3
f 287/3/3 285/3/3 279/3/3
f 288/1/3 286/1/3 285/1/3
f 288/3/3 285/3/3 287/3/3
f 289/3/3 287/3/3 279/3/3
f 289/1/3 288/1/3 287/1/3
f 290/1/3 286/1/3 288/1/3
f 290/1/3 288/1/3 289/1/3
f 291/4/3 284/4/3 283/4/3
f 292/4/3 278/4/3 284/4/3
f 292/4/3 284/4/3 291/4/3
f 293/1/3 286/1/3 290/1/3
f 293/3/3 290/3/3 289/3/3
f 294/1/3 286/1/3 293/1/3
f 295/8/3 282/8/3 281/8/3
f 296/8/3 282/8/3 295/8/3
f 297/4/3 278/4/3 292/4/3
f 298/5/3 279/5/3 278/5/3
f 298/4/3 278/4/3 297/4/3
f 299/3/3 289/3/3 279/3/3
f 299/5/3 279/5/3 298/5/3
f 299/3/3 293/3/3 289/3/3
f 300/3/3 293/3/3 299/3/3
f 303/1/3 302/1/3 301/1/3
f 304/1/3 302/1/3 303/1/3
f 307/1/3 306/1/3 305/1/3
f 308/1/3 306/1/3 307/1/3
f 311/3/3 304/3/3 303/3/3
f 312/3/3 304/3/3 311/3/3
f 314/4/3 310/4/3 309/4/3
f 315/4/3 310/4/3 314/4/3
f 316/3/3 313/3/3 312/3/3
f 317/3/3 313/3/3 316/3/3
f 318/4/3 314/4/3 309/4/3
f 319/4/3 314/4/3 318/4/3
f 324/1/3 321/1/3 320/1/3
f 325/1/3 321/1/3 324/1/3
f 326/4/3 323/4/3 322/4/3
f 330/4/3 326/4/3 322/4/3
f 330/4/3 327/4/3 326/4/3
f 331/4/3 327/4/3 330/4/3
f 333/3/3 329/3/3 328/3/3
f 334/3/3 329/3/3 333/3/3
f 337/1/3 336/1/3 335/1/3
f 338/1/3 336/1/3 337/1/3
f 339/3/3 333/3/3 332/3/3
f 340/3/3 333/3/3 339/3/3
f 341/1/3 340/1/3 339/1/3
f 342/1/3 340/1/3 341/1/3
f 343/1/4 344/1/4 345/1/4
f 345/1/4 344/1/4 346/1/4
f 347/1/4 348/1/4 349/1/4
f 349/1/4 348/1/4 350/1/4
f 350/1/4 348/1/4 351/1/4
f 345/3/4 346/3/4 355/3/4
f 355/3/4 346/3/4 356/3/4
f 353/4/4 354/4/4 358/4/4
f 358/4/4 354/4/4 359/4/4
f 356/3/4 357/3/4 360/3/4
f 360/3/4 357/3/4 361/3/4
f 352/1/4 353/1/4 362/1/4
f 353/4/4 358/4/4 363/4/4
f 362/1/4 353/1/4 363/1/4
f 363/4/4 358/4/4 364/4/4
f 365/1/4 366/1/4 370/1/4
f 370/1/4 366/1/4 371/1/4
f 368/4/4 369/4/4 372/4/4
f 367/1/4 368/1/4 376/1/4
f 368/4/4 372/4/4 377/4/4
f 376/1/4 368/1/4 377/1/4
f 372/4/4 373/4/4 377/4/4
f 377/4/4 373/4/4 378/4/4
f 374/3/4 375/3/4 380/3/4
f 380/3/4 375/3/4 381/3/4
f 382/1/4 383/1/4 385/1/4
f 383/1/4 384/1/4 385/1/4
f 385/1/4 384/1/4 386/1/4
f 379/3/4 380/3/4 387/3/4
f 387/3/4 380/3/4 388/3/4
f 387/1/4 388/1/4 389/1/4
f 389/1/4 388/1/4 390/1/4
f 391/4/4 392/4/4 398/4/4
f 393/3/4 394/3/4 399/3/4
f 397/4/4 398/4/4 401/4/4
f 398/4/4 392/4/4 402/4/4
f 401/4/4 398/4/4 402/4/4
f 399/3/4 400/3/4 403/3/4
f 393/3/4 399/3/4 403/3/4
f 403/3/4 400/3/4 404/3/4
f 395/8/4 396/8/4 405/8/4
f 405/8/4 396/8/4 406/8/4
f 402/4/4 392/4/4 407/4/4
f 392/5/4 393/5/4 408/5/4
f 407/4/4 392/4/4 408/4/4
f 393/3/4 403/3/4 409/3/4
f 408/5/4 393/5/4 409/5/4
f 409/3/4 403/3/4 410/3/4
f 411/1/4 412/1/4 415/1/4
f 415/1/4 412/1/4 416/1/4
f 413/8/4 414/8/4 417/8/4
f 417/8/4 414/8/4 418/8/4
f 419/1/4 420/1/4 423/1/4
f 423/1/4 420/1/4 424/1/4
f 421/8/4 422/8/4 425/8/4
f 425/8/4 422/8/4 426/8/4
f 427/1/4 428/1/4 431/1/4
f 431/1/4 428/1/4 432/1/4
f 428/8/4 429/8/4 433/8/4
f 432/1/4 428/1/4 433/1/4
f 433/8/4 429/8/4 434/8/4
f 431/1/4 432/1/4 436/1/4
f 430/1/4 431/1/4 436/1/4
f 434/8/4 435/8/4 437/8/4
f 436/1/4 432/1/4 437/1/4
f 433/8/4 434/8/4 437/8/4
f 432/8/4 433/8/4 437/8/4
f 430/1/4 436/1/4 438/1/4
f 436/8/4 437/8/4 438/8/4
f 437/8/4 435/8/4 439/8/4
f 438/8/4 437/8/4 439/8/4
f 430/1/4 438/1/4 440/1/4
f 438/1/4 439/1/4 440/1/4
f 440/1/4 439/1/4 441/1/4
f 439/8/4 435/8/4 442/8/4
f 441/1/4 439/1/4 442/1/4
f 442/8/4 435/8/4 443/8/4
f 443/8/4 435/8/4 444/8/4
f 444/8/4 435/8/4 445/8/4
f 441/1/4 442/1/4 446/1/4
f 442/1/4 443/1/4 446/1/4
f 443/8/4 444/8/4 447/8/4
f 446/1/4 443/1/4 447/1/4
f 447/8/4 444/8/4 448/8/4
f 453/1/5 450/1/5 449/1/5
f 454/1/5 450/1/5 453/1/5
f 455/1/5 452/1/5 451/1/5
f 456/1/5 452/1/5 455/1/5
f 459/4/5 458/4/5 457/4/5
f 460/4/5 458/4/5 459/4/5
f 461/4/5 458/4/5 460/4/5
f 462/4/5 458/4/5 461/4/5
f 464/4/5 461/4/5 460/4/5
f 465/4/5 461/4/5 464/4/5
f 467/4/5 464/4/5 463/4/5
f 467/4/5 466/4/5 465/4/5
f 467/4/5 465/4/5 464/4/5
f 468/4/5 466/4/5 467/4/5
f 473/4/5 470/4/5 469/4/5
f 474/4/5 470/4/5 473/4/5
f 475/4/5 472/4/5 471/4/5
f 476/4/5 472/4/5 475/4/5
f 481/4/5 478/4/5 477/4/5
f 482/4/5 478/4/5 481/4/5
f 483/4/5 480/4/5 479/4/5
f 484/4/5 480/4/5 483/4/5
f 491/1/5 486/1/5 485/1/5
f 492/3/5 487/3/5 486/3/5
f 492/1/5 486/1/5 491/1/5
f 493/3/5 487/3/5 492/3/5
f 494/3/5 489/3/5 488/3/5
f 495/1/5 490/1/5 489/1/5
f 495/3/5 489/3/5 494/3/5
f 496/1/5 490/1/5 495/1/5
f 500/1/5 498/1/5 497/1/5
f 501/1/5 498/1/5 500/1/5
f 503/1/5 500/1/5 499/1/5
f 503/1/5 502/1/5 501/1/5
f 503/1/5 501/1/5 500/1/5
f 504/1/5 502/1/5 503/1/5
f 505/1/5 503/1/5 499/1/5
f 506/1/5 502/1/5 504/1/5
f 507/1/5 505/1/5 499/1/5
f 507/1/5 506/1/5 505/1/5
f 508/1/5 506/1/5 507/1/5
f 509/1/5 502/1/5 506/1/5
f 509/1/5 506/1/5 508/1/5
f 510/1/5 502/1/5 509/1/5
f 511/1/5 509/1/5 508/1/5
f 512/1/5 509/1/5 511/1/5
f 517/1/5 514/1/5 513/1/5
f 518/1/5 514/1/5 517/1/5
f 519/1/5 516/1/5 515/1/5
f 520/1/5 516/1/5 519/1/5
f 525/1/5 522/1/5 521/1/5
f 526/1/5 522/1/5 525/1/5
f 527/1/5 524/1/5 523/1/5
f 528/1/5 524/1/5 527/1/5
f 531/1/5 530/1/5 529/1/5
f 532/1/5 530/1/5 531/1/5
f 537/1/5 534/1/5 533/1/5
f 538/1/5 534/1/5 537/1/5
f 539/1/5 536/1/5 535/1/5
f 540/1/5 536/1/5 539/1/5
f 541/1/6 542/1/6 545/1/6
f 545/1/6 542/1/6 546/1/6
f 543/1/6 544/1/6 547/1/6
f 547/1/6 544/1/6 548/1/6
f 549/3/6 550/3/6 555/3/6
f 555/3/6 550/3/6 556/3/6
f 551/3/6 552/3/6 557/3/6
f 557/3/6 552/3/6 558/3/6
f 553/1/6 554/1/6 561/1/6
f 554/3/6 555/3/6 562/3/6
f 561/1/6 554/1/6 562/1/6
f 562/3/6 555/3/6 563/3/6
f 558/3/6 559/3/6 566/3/6
f 559/1/6 560/1/6 567/1/6
f 566/3/6 559/3/6 567/3/6
f 567/1/6 560/1/6 568/1/6
f 563/3/6 564/3/6 569/3/6
f 569/3/6 564/3/6 570/3/6
f 565/3/6 566/3/6 571/3/6
f 571/3/6 566/3/6 572/3/6
f 573/1/6 574/1/6 576/1/6
f 576/1/6 574/1/6 577/1/6
f 577/1/6 574/1/6 578/1/6
f 578/1/6 574/1/6 579/1/6
f 575/3/6 576/3/6 581/3/6
f 576/3/6 577/3/6 581/3/6
f 581/3/6 577/3/6 582/3/6
f 582/3/6 577/3/6 583/3/6
f 579/3/6 580/3/6 584/3/6
f 578/3/6 579/3/6 584/3/6
f 584/3/6 580/3/6 585/3/6
f 585/3/6 580/3/6 586/3/6
f 582/3/6 583/3/6 587/3/6
f 584/3/6 585/3/6 587/3/6
f 583/3/6 584/3/6 587/3/6
f 587/3/6 585/3/6 588/3/6
f 589/1/6 590/1/6 591/1/6
f 591/1/6 590/1/6 592/1/6
f 593/1/6 594/1/6 597/1/6
f 597/1/6 594/1/6 598/1/6
f 595/1/6 596/1/6 599/1/6
f 599/1/6 596/1/6 600/1/6
f 601/1/6 602/1/6 605/1/6
f 605/1/6 602/1/6 606/1/6
f 603/1/6 604/1/6 607/1/6
f 607/1/6 604/1/6 608/1/6
f 609/8/6 610/8/6 613/8/6
f 613/8/6 610/8/6 614/8/6
f 611/8/6 612/8/6 615/8/6
f 615/8/6 612/8/6 616/8/6
f 617/8/6 618/8/6 620/8/6
f 620/8/6 618/8/6 621/8/6
f 619/8/6 620/8/6 623/8/6
f 621/8/6 622/8/6 623/8/6
f 620/8/6 621/8/6 623/8/6
f 623/8/6 622/8/6 624/8/6
f 619/8/6 623/8/6 625/8/6
f 624/8/6 622/8/6 626/8/6
f 619/8/6 625/8/6 627/8/6
f 625/8/6 626/8/6 627/8/6
f 627/8/6 626/8/6 628/8/6
f 626/8/6 622/8/6 629/8/6
f 628/8/6 626/8/6 629/8/6
f 629/8/6 622/8/6 630/8/6
f 628/8/6 629/8/6 631/8/6
f 631/8/6 629/8/6 632/8/6
f 633/8/6 634/8/6 635/8/6
f 635/8/6 634/8/6 636/8/6
