# MagicaVoxel @ Ephtracy

# group
g Goblin

# material
mtllib Goblin.mtl
usemtl palette

# normals
vn -1 0 0
vn 1 0 0
vn 0 0 1
vn 0 0 -1
vn 0 -1 0
vn 0 1 0

# texcoords
vt 0.509766 0.5
vt 0.896484 0.5
vt 0.955078 0.5
vt 0.994141 0.5

# verts
v -13 15 -0
v -13 15 -2
v -13 17 -0
v -13 17 -2
v -6 21 -1
v -6 21 -3
v -6 22 -3
v -6 22 -4
v -6 23 -1
v -6 23 -2
v -6 24 -2
v -6 24 -3
v -6 25 -3
v -6 25 -4
v -5 0 3
v -5 0 -1
v -5 1 3
v -5 1 1
v -5 5 1
v -5 5 -1
v -5 8 -1
v -5 8 -3
v -5 9 2
v -5 9 1
v -5 9 -3
v -5 9 -4
v -5 11 2
v -5 11 -4
v -5 15 -0
v -5 15 -2
v -5 15 -4
v -5 15 -5
v -5 16 2
v -5 16 1
v -5 17 -0
v -5 17 -2
v -5 17 -4
v -5 17 -5
v -5 18 1
v -5 18 -4
v -4 8 2
v -4 8 1
v -4 9 2
v -4 9 1
v -4 14 -4
v -4 14 -5
v -4 15 -4
v -4 15 -5
v -4 16 2
v -4 16 1
v -4 17 2
v -4 17 1
v -4 17 -4
v -4 17 -5
v -4 18 -4
v -4 18 -5
v -4 19 4
v -4 19 -3
v -4 21 2
v -4 21 -0
v -4 21 -1
v -4 21 -3
v -4 22 4
v -4 22 2
v -4 22 1
v -4 23 1
v -4 23 -0
v -4 23 -1
v -4 23 -2
v -4 24 -0
v -4 24 -2
v -3 18 -1
v -3 18 -3
v -3 19 -1
v -3 19 -3
v -3 19 -4
v -3 20 5
v -3 20 4
v -3 22 5
v -3 22 4
v -3 23 1
v -3 23 -0
v -3 23 -2
v -3 23 -3
v -3 24 1
v -3 24 -0
v -3 24 -2
v -3 24 -4
v -1 0 3
v -1 0 -1
v -1 1 3
v -1 1 1
v -1 5 1
v -1 5 -1
v -1 8 1
v -1 8 -1
v 1 22 -3
v 1 22 -4
v 1 23 -2
v 1 23 -3
v 1 24 -2
v 1 24 -3
v 1 25 -3
v 1 25 -4
v -5 22 -3
v -5 22 -4
v -5 23 -2
v -5 23 -3
v -5 24 -2
v -5 24 -3
v -5 25 -3
v -5 25 -4
v -3 0 3
v -3 0 -1
v -3 1 3
v -3 1 1
v -3 5 1
v -3 5 -1
v -3 8 1
v -3 8 -1
v -1 18 -1
v -1 18 -3
v -1 19 -1
v -1 19 -3
v -1 19 -4
v -1 20 5
v -1 20 4
v -1 22 5
v -1 22 4
v -1 23 1
v -1 23 -0
v -1 23 -2
v -1 23 -3
v -1 24 1
v -1 24 -0
v -1 24 -2
v -1 24 -4
v 0 8 2
v 0 8 1
v 0 9 2
v 0 9 1
v 0 14 -4
v 0 14 -5
v 0 15 -4
v 0 15 -5
v 0 16 2
v 0 16 1
v 0 17 2
v 0 17 1
v 0 17 -4
v 0 17 -5
v 0 18 -4
v 0 18 -5
v 0 19 4
v 0 19 -3
v 0 21 2
v 0 21 -0
v 0 21 -1
v 0 21 -3
v 0 22 4
v 0 22 2
v 0 22 1
v 0 23 1
v 0 23 -0
v 0 23 -1
v 0 23 -2
v 0 24 -0
v 0 24 -2
v 1 0 3
v 1 0 -1
v 1 1 3
v 1 1 1
v 1 5 1
v 1 5 -1
v 1 8 -1
v 1 8 -3
v 1 9 2
v 1 9 1
v 1 9 -3
v 1 9 -4
v 1 11 2
v 1 11 -4
v 1 15 -0
v 1 15 -2
v 1 15 -4
v 1 15 -5
v 1 16 2
v 1 16 1
v 1 17 -0
v 1 17 -2
v 1 17 -4
v 1 17 -5
v 1 18 1
v 1 18 -4
v 2 21 -1
v 2 21 -3
v 2 22 -3
v 2 22 -4
v 2 23 -1
v 2 23 -2
v 2 24 -2
v 2 24 -3
v 2 25 -3
v 2 25 -4
v 9 15 -0
v 9 15 -2
v 9 17 -0
v 9 17 -2
v -3 20 5
v -3 22 5
v -1 20 5
v -1 22 5
v -4 19 4
v -4 22 4
v -3 20 4
v -3 22 4
v -1 20 4
v -1 22 4
v 0 19 4
v 0 22 4
v -5 0 3
v -5 1 3
v -3 0 3
v -3 1 3
v -1 0 3
v -1 1 3
v 1 0 3
v 1 1 3
v -5 9 2
v -5 11 2
v -5 16 2
v -4 8 2
v -4 9 2
v -4 16 2
v -4 17 2
v -3 9 2
v -3 11 2
v -1 9 2
v -1 11 2
v 0 8 2
v 0 9 2
v 0 16 2
v 0 17 2
v 1 9 2
v 1 11 2
v 1 16 2
v -5 1 1
v -5 5 1
v -5 9 1
v -5 16 1
v -5 18 1
v -4 8 1
v -4 9 1
v -4 16 1
v -4 17 1
v -4 22 1
v -4 23 1
v -3 1 1
v -3 5 1
v -3 8 1
v -3 22 1
v -3 23 1
v -3 24 1
v -1 1 1
v -1 5 1
v -1 8 1
v -1 22 1
v -1 23 1
v -1 24 1
v 0 8 1
v 0 9 1
v 0 16 1
v 0 17 1
v 0 22 1
v 0 23 1
v 1 1 1
v 1 5 1
v 1 9 1
v 1 16 1
v 1 18 1
v -13 15 -0
v -13 17 -0
v -9 15 -0
v -9 17 -0
v -8 15 -0
v -8 17 -0
v -5 15 -0
v -5 17 -0
v -4 23 -0
v -4 24 -0
v -3 23 -0
v -3 24 -0
v -1 23 -0
v -1 24 -0
v 0 23 -0
v 0 24 -0
v 1 15 -0
v 1 17 -0
v 4 15 -0
v 4 17 -0
v 5 15 -0
v 5 17 -0
v 9 15 -0
v 9 17 -0
v -6 21 -1
v -6 23 -1
v -4 21 -1
v -4 23 -1
v -3 18 -1
v -3 19 -1
v -1 18 -1
v -1 19 -1
v 0 21 -1
v 0 23 -1
v 2 21 -1
v 2 23 -1
v -6 23 -2
v -6 24 -2
v -5 23 -2
v -5 24 -2
v 1 23 -2
v 1 24 -2
v 2 23 -2
v 2 24 -2
v -6 24 -3
v -6 25 -3
v -5 24 -3
v -5 25 -3
v 1 24 -3
v 1 25 -3
v 2 24 -3
v 2 25 -3
v -5 0 -1
v -5 5 -1
v -5 8 -1
v -3 0 -1
v -3 5 -1
v -3 8 -1
v -1 0 -1
v -1 5 -1
v -1 8 -1
v 1 0 -1
v 1 5 -1
v 1 8 -1
v -13 15 -2
v -13 17 -2
v -9 15 -2
v -9 17 -2
v -8 15 -2
v -8 17 -2
v -5 15 -2
v -5 17 -2
v -4 23 -2
v -4 24 -2
v -3 23 -2
v -3 24 -2
v -1 23 -2
v -1 24 -2
v 0 23 -2
v 0 24 -2
v 1 15 -2
v 1 17 -2
v 4 15 -2
v 4 17 -2
v 5 15 -2
v 5 17 -2
v 9 15 -2
v 9 17 -2
v -6 21 -3
v -6 22 -3
v -5 8 -3
v -5 9 -3
v -5 22 -3
v -5 23 -3
v -4 19 -3
v -4 21 -3
v -3 18 -3
v -3 19 -3
v -3 23 -3
v -1 18 -3
v -1 19 -3
v -1 23 -3
v 0 19 -3
v 0 21 -3
v 1 8 -3
v 1 9 -3
v 1 22 -3
v 1 23 -3
v 2 21 -3
v 2 22 -3
v -6 22 -4
v -6 25 -4
v -5 9 -4
v -5 11 -4
v -5 15 -4
v -5 17 -4
v -5 18 -4
v -5 22 -4
v -5 25 -4
v -4 14 -4
v -4 15 -4
v -4 17 -4
v -4 18 -4
v -3 19 -4
v -3 24 -4
v -1 19 -4
v -1 24 -4
v 0 14 -4
v 0 15 -4
v 0 17 -4
v 0 18 -4
v 1 9 -4
v 1 11 -4
v 1 15 -4
v 1 17 -4
v 1 18 -4
v 1 22 -4
v 1 25 -4
v 2 22 -4
v 2 25 -4
v -5 15 -5
v -5 17 -5
v -4 14 -5
v -4 15 -5
v -4 17 -5
v -4 18 -5
v 0 14 -5
v 0 15 -5
v 0 17 -5
v 0 18 -5
v 1 15 -5
v 1 17 -5
v -5 0 3
v -3 0 3
v -1 0 3
v 1 0 3
v -5 0 -1
v -3 0 -1
v -1 0 -1
v 1 0 -1
v -4 8 2
v 0 8 2
v -4 8 1
v -3 8 1
v -1 8 1
v 0 8 1
v -5 8 -1
v -3 8 -1
v -1 8 -1
v 1 8 -1
v -5 8 -3
v 1 8 -3
v -5 9 2
v -4 9 2
v 0 9 2
v 1 9 2
v -5 9 1
v -4 9 1
v 0 9 1
v 1 9 1
v -5 9 -3
v 1 9 -3
v -5 9 -4
v 1 9 -4
v -4 14 -4
v 0 14 -4
v -4 14 -5
v 0 14 -5
v -13 15 -0
v -9 15 -0
v -8 15 -0
v -5 15 -0
v 1 15 -0
v 4 15 -0
v 5 15 -0
v 9 15 -0
v -13 15 -2
v -9 15 -2
v -8 15 -2
v -5 15 -2
v 1 15 -2
v 4 15 -2
v 5 15 -2
v 9 15 -2
v -5 15 -4
v -4 15 -4
v 0 15 -4
v 1 15 -4
v -5 15 -5
v -4 15 -5
v 0 15 -5
v 1 15 -5
v -4 19 4
v 0 19 4
v -3 19 -1
v -1 19 -1
v -4 19 -3
v -3 19 -3
v -1 19 -3
v 0 19 -3
v -3 19 -4
v -1 19 -4
v -3 20 5
v -1 20 5
v -3 20 4
v -1 20 4
v -6 21 -1
v -4 21 -1
v 0 21 -1
v 2 21 -1
v -6 21 -3
v -4 21 -3
v 0 21 -3
v 2 21 -3
v -6 22 -3
v -5 22 -3
v 1 22 -3
v 2 22 -3
v -6 22 -4
v -5 22 -4
v 1 22 -4
v 2 22 -4
v -5 1 3
v -3 1 3
v -1 1 3
v 1 1 3
v -5 1 1
v -3 1 1
v -1 1 1
v 1 1 1
v -5 16 2
v -4 16 2
v 0 16 2
v 1 16 2
v -5 16 1
v -4 16 1
v 0 16 1
v 1 16 1
v -4 17 2
v 0 17 2
v -4 17 1
v 0 17 1
v -13 17 -0
v -9 17 -0
v -8 17 -0
v -5 17 -0
v 1 17 -0
v 4 17 -0
v 5 17 -0
v 9 17 -0
v -13 17 -2
v -9 17 -2
v -8 17 -2
v -5 17 -2
v 1 17 -2
v 4 17 -2
v 5 17 -2
v 9 17 -2
v -5 17 -4
v -4 17 -4
v 0 17 -4
v 1 17 -4
v -5 17 -5
v -4 17 -5
v 0 17 -5
v 1 17 -5
v -5 18 1
v 1 18 1
v -3 18 -1
v -1 18 -1
v -3 18 -3
v -1 18 -3
v -5 18 -4
v -4 18 -4
v 0 18 -4
v 1 18 -4
v -4 18 -5
v 0 18 -5
v -3 22 5
v -1 22 5
v -4 22 4
v -3 22 4
v -1 22 4
v 0 22 4
v -4 22 2
v -3 22 2
v -1 22 2
v 0 22 2
v -4 22 1
v -3 22 1
v -1 22 1
v 0 22 1
v -4 23 1
v -3 23 1
v -1 23 1
v 0 23 1
v -4 23 -0
v -3 23 -0
v -1 23 -0
v 0 23 -0
v -6 23 -1
v -4 23 -1
v 0 23 -1
v 2 23 -1
v -6 23 -2
v -5 23 -2
v -4 23 -2
v -3 23 -2
v -1 23 -2
v 0 23 -2
v 1 23 -2
v 2 23 -2
v -5 23 -3
v -3 23 -3
v -1 23 -3
v 1 23 -3
v -3 24 1
v -1 24 1
v -4 24 -0
v -3 24 -0
v -1 24 -0
v 0 24 -0
v -6 24 -2
v -5 24 -2
v -4 24 -2
v -3 24 -2
v -1 24 -2
v 0 24 -2
v 1 24 -2
v 2 24 -2
v -6 24 -3
v -5 24 -3
v 1 24 -3
v 2 24 -3
v -3 24 -4
v -1 24 -4
v -6 25 -3
v -5 25 -3
v 1 25 -3
v 2 25 -3
v -6 25 -4
v -5 25 -4
v 1 25 -4
v 2 25 -4

# faces
f 3/2/1 2/2/1 1/2/1
f 4/2/1 2/2/1 3/2/1
f 7/2/1 6/2/1 5/2/1
f 9/2/1 7/2/1 5/2/1
f 9/2/1 8/2/1 7/2/1
f 10/2/1 8/2/1 9/2/1
f 11/2/1 8/2/1 10/2/1
f 12/2/1 8/2/1 11/2/1
f 13/2/1 8/2/1 12/2/1
f 14/2/1 8/2/1 13/2/1
f 17/2/1 16/2/1 15/2/1
f 18/2/1 16/2/1 17/2/1
f 19/2/1 16/2/1 18/2/1
f 20/2/1 16/2/1 19/2/1
f 21/1/1 20/1/1 19/1/1
f 24/1/1 21/1/1 19/1/1
f 24/1/1 22/1/1 21/1/1
f 25/1/1 22/1/1 24/1/1
f 27/1/1 24/1/1 23/1/1
f 27/1/1 26/1/1 25/1/1
f 27/1/1 25/1/1 24/1/1
f 28/1/1 26/1/1 27/1/1
f 29/2/1 28/2/1 27/2/1
f 30/2/1 28/2/1 29/2/1
f 31/2/1 28/2/1 30/2/1
f 33/2/1 29/2/1 27/2/1
f 34/2/1 29/2/1 33/2/1
f 35/2/1 29/2/1 34/2/1
f 36/2/1 31/2/1 30/2/1
f 36/2/1 32/2/1 31/2/1
f 37/2/1 32/2/1 36/2/1
f 38/2/1 32/2/1 37/2/1
f 39/2/1 35/2/1 34/2/1
f 39/2/1 36/2/1 35/2/1
f 39/2/1 37/2/1 36/2/1
f 40/2/1 37/2/1 39/2/1
f 43/1/1 42/1/1 41/1/1
f 44/1/1 42/1/1 43/1/1
f 47/2/1 46/2/1 45/2/1
f 48/2/1 46/2/1 47/2/1
f 51/2/1 50/2/1 49/2/1
f 52/2/1 50/2/1 51/2/1
f 55/2/1 54/2/1 53/2/1
f 56/2/1 54/2/1 55/2/1
f 59/2/1 58/2/1 57/2/1
f 60/2/1 58/2/1 59/2/1
f 61/2/1 58/2/1 60/2/1
f 62/2/1 58/2/1 61/2/1
f 63/2/1 59/2/1 57/2/1
f 64/3/1 60/3/1 59/3/1
f 64/2/1 59/2/1 63/2/1
f 65/3/1 60/3/1 64/3/1
f 66/3/1 60/3/1 65/3/1
f 67/2/1 61/2/1 60/2/1
f 67/3/1 60/3/1 66/3/1
f 68/2/1 61/2/1 67/2/1
f 70/1/1 69/1/1 68/1/1
f 70/1/1 68/1/1 67/1/1
f 71/1/1 69/1/1 70/1/1
f 74/2/1 73/2/1 72/2/1
f 75/2/1 73/2/1 74/2/1
f 79/2/1 78/2/1 77/2/1
f 80/2/1 78/2/1 79/2/1
f 84/1/1 76/1/1 75/1/1
f 85/1/1 82/1/1 81/1/1
f 86/1/1 82/1/1 85/1/1
f 87/1/1 84/1/1 83/1/1
f 88/1/1 76/1/1 84/1/1
f 88/1/1 84/1/1 87/1/1
f 91/2/1 90/2/1 89/2/1
f 92/2/1 90/2/1 91/2/1
f 93/2/1 90/2/1 92/2/1
f 94/2/1 90/2/1 93/2/1
f 95/1/1 94/1/1 93/1/1
f 96/1/1 94/1/1 95/1/1
f 100/2/1 98/2/1 97/2/1
f 101/2/1 100/2/1 99/2/1
f 102/2/1 98/2/1 100/2/1
f 102/2/1 100/2/1 101/2/1
f 103/2/1 98/2/1 102/2/1
f 104/2/1 98/2/1 103/2/1
f 105/2/2 106/2/2 108/2/2
f 107/2/2 108/2/2 109/2/2
f 108/2/2 106/2/2 110/2/2
f 109/2/2 108/2/2 110/2/2
f 110/2/2 106/2/2 111/2/2
f 111/2/2 106/2/2 112/2/2
f 113/2/2 114/2/2 115/2/2
f 115/2/2 114/2/2 116/2/2
f 116/2/2 114/2/2 117/2/2
f 117/2/2 114/2/2 118/2/2
f 117/1/2 118/1/2 119/1/2
f 119/1/2 118/1/2 120/1/2
f 121/2/2 122/2/2 123/2/2
f 123/2/2 122/2/2 124/2/2
f 126/2/2 127/2/2 128/2/2
f 128/2/2 127/2/2 129/2/2
f 124/1/2 125/1/2 133/1/2
f 130/1/2 131/1/2 134/1/2
f 134/1/2 131/1/2 135/1/2
f 132/1/2 133/1/2 136/1/2
f 133/1/2 125/1/2 137/1/2
f 136/1/2 133/1/2 137/1/2
f 138/1/2 139/1/2 140/1/2
f 140/1/2 139/1/2 141/1/2
f 142/2/2 143/2/2 144/2/2
f 144/2/2 143/2/2 145/2/2
f 146/2/2 147/2/2 148/2/2
f 148/2/2 147/2/2 149/2/2
f 150/2/2 151/2/2 152/2/2
f 152/2/2 151/2/2 153/2/2
f 154/2/2 155/2/2 156/2/2
f 156/2/2 155/2/2 157/2/2
f 157/2/2 155/2/2 158/2/2
f 158/2/2 155/2/2 159/2/2
f 154/2/2 156/2/2 160/2/2
f 156/3/2 157/3/2 161/3/2
f 160/2/2 156/2/2 161/2/2
f 161/3/2 157/3/2 162/3/2
f 162/3/2 157/3/2 163/3/2
f 157/2/2 158/2/2 164/2/2
f 163/3/2 157/3/2 164/3/2
f 164/2/2 158/2/2 165/2/2
f 165/1/2 166/1/2 167/1/2
f 164/1/2 165/1/2 167/1/2
f 167/1/2 166/1/2 168/1/2
f 169/2/2 170/2/2 171/2/2
f 171/2/2 170/2/2 172/2/2
f 172/2/2 170/2/2 173/2/2
f 173/2/2 170/2/2 174/2/2
f 173/1/2 174/1/2 175/1/2
f 173/1/2 175/1/2 178/1/2
f 175/1/2 176/1/2 178/1/2
f 178/1/2 176/1/2 179/1/2
f 177/1/2 178/1/2 181/1/2
f 179/1/2 180/1/2 181/1/2
f 178/1/2 179/1/2 181/1/2
f 181/1/2 180/1/2 182/1/2
f 181/2/2 182/2/2 183/2/2
f 183/2/2 182/2/2 184/2/2
f 184/2/2 182/2/2 185/2/2
f 181/2/2 183/2/2 187/2/2
f 187/2/2 183/2/2 188/2/2
f 188/2/2 183/2/2 189/2/2
f 184/2/2 185/2/2 190/2/2
f 185/2/2 186/2/2 190/2/2
f 190/2/2 186/2/2 191/2/2
f 191/2/2 186/2/2 192/2/2
f 188/2/2 189/2/2 193/2/2
f 189/2/2 190/2/2 193/2/2
f 190/2/2 191/2/2 193/2/2
f 193/2/2 191/2/2 194/2/2
f 195/2/2 196/2/2 197/2/2
f 195/2/2 197/2/2 199/2/2
f 197/2/2 198/2/2 199/2/2
f 199/2/2 198/2/2 200/2/2
f 200/2/2 198/2/2 201/2/2
f 201/2/2 198/2/2 202/2/2
f 202/2/2 198/2/2 203/2/2
f 203/2/2 198/2/2 204/2/2
f 205/2/2 206/2/2 207/2/2
f 207/2/2 206/2/2 208/2/2
f 211/2/3 210/2/3 209/2/3
f 212/2/3 210/2/3 211/2/3
f 215/2/3 214/2/3 213/2/3
f 216/2/3 214/2/3 215/2/3
f 217/2/3 215/2/3 213/2/3
f 219/2/3 217/2/3 213/2/3
f 219/2/3 218/2/3 217/2/3
f 220/2/3 218/2/3 219/2/3
f 223/2/3 222/2/3 221/2/3
f 224/2/3 222/2/3 223/2/3
f 227/2/3 226/2/3 225/2/3
f 228/2/3 226/2/3 227/2/3
f 233/1/3 230/1/3 229/1/3
f 234/2/3 231/2/3 230/2/3
f 236/1/3 233/1/3 232/1/3
f 236/1/3 230/1/3 233/1/3
f 237/2/3 235/2/3 234/2/3
f 237/1/3 230/1/3 236/1/3
f 237/2/3 234/2/3 230/2/3
f 238/1/3 236/1/3 232/1/3
f 238/4/3 237/4/3 236/4/3
f 239/2/3 235/2/3 237/2/3
f 239/4/3 237/4/3 238/4/3
f 240/1/3 238/1/3 232/1/3
f 240/1/3 239/1/3 238/1/3
f 241/1/3 239/1/3 240/1/3
f 242/2/3 235/2/3 239/2/3
f 243/2/3 235/2/3 242/2/3
f 244/1/3 239/1/3 241/1/3
f 245/2/3 242/2/3 239/2/3
f 245/1/3 239/1/3 244/1/3
f 246/2/3 242/2/3 245/2/3
f 252/1/3 249/1/3 248/1/3
f 253/1/3 249/1/3 252/1/3
f 254/2/3 251/2/3 250/2/3
f 255/2/3 251/2/3 254/2/3
f 258/2/3 248/2/3 247/2/3
f 259/1/3 252/1/3 248/1/3
f 259/2/3 248/2/3 258/2/3
f 260/1/3 252/1/3 259/1/3
f 261/3/3 257/3/3 256/3/3
f 262/3/3 257/3/3 261/3/3
f 267/1/3 263/1/3 262/1/3
f 267/1/3 262/1/3 261/1/3
f 268/1/3 263/1/3 267/1/3
f 269/1/3 263/1/3 268/1/3
f 270/1/3 266/1/3 265/1/3
f 273/2/3 251/2/3 255/2/3
f 274/3/3 268/3/3 267/3/3
f 275/3/3 268/3/3 274/3/3
f 276/2/3 265/2/3 264/2/3
f 277/1/3 271/1/3 270/1/3
f 277/2/3 265/2/3 276/2/3
f 277/1/3 270/1/3 265/1/3
f 278/1/3 271/1/3 277/1/3
f 279/2/3 273/2/3 272/2/3
f 280/2/3 251/2/3 273/2/3
f 280/2/3 273/2/3 279/2/3
f 283/2/3 282/2/3 281/2/3
f 284/2/3 282/2/3 283/2/3
f 285/1/3 284/1/3 283/1/3
f 286/1/3 284/1/3 285/1/3
f 287/2/3 286/2/3 285/2/3
f 288/2/3 286/2/3 287/2/3
f 291/1/3 290/1/3 289/1/3
f 292/1/3 290/1/3 291/1/3
f 295/1/3 294/1/3 293/1/3
f 296/1/3 294/1/3 295/1/3
f 299/2/3 298/2/3 297/2/3
f 300/2/3 298/2/3 299/2/3
f 301/1/3 300/1/3 299/1/3
f 302/1/3 300/1/3 301/1/3
f 303/2/3 302/2/3 301/2/3
f 304/2/3 302/2/3 303/2/3
f 307/2/3 306/2/3 305/2/3
f 308/2/3 306/2/3 307/2/3
f 311/2/3 310/2/3 309/2/3
f 312/2/3 310/2/3 311/2/3
f 315/2/3 314/2/3 313/2/3
f 316/2/3 314/2/3 315/2/3
f 319/2/3 318/2/3 317/2/3
f 320/2/3 318/2/3 319/2/3
f 323/2/3 322/2/3 321/2/3
f 324/2/3 322/2/3 323/2/3
f 327/2/3 326/2/3 325/2/3
f 328/2/3 326/2/3 327/2/3
f 331/2/3 330/2/3 329/2/3
f 332/2/3 330/2/3 331/2/3
f 333/2/4 334/2/4 336/2/4
f 334/1/4 335/1/4 337/1/4
f 336/2/4 334/2/4 337/2/4
f 337/1/4 335/1/4 338/1/4
f 339/2/4 340/2/4 342/2/4
f 340/1/4 341/1/4 343/1/4
f 342/2/4 340/2/4 343/2/4
f 343/1/4 341/1/4 344/1/4
f 345/2/4 346/2/4 347/2/4
f 347/2/4 346/2/4 348/2/4
f 347/1/4 348/1/4 349/1/4
f 349/1/4 348/1/4 350/1/4
f 349/2/4 350/2/4 351/2/4
f 351/2/4 350/2/4 352/2/4
f 353/1/4 354/1/4 355/1/4
f 355/1/4 354/1/4 356/1/4
f 357/1/4 358/1/4 359/1/4
f 359/1/4 358/1/4 360/1/4
f 361/2/4 362/2/4 363/2/4
f 363/2/4 362/2/4 364/2/4
f 363/1/4 364/1/4 365/1/4
f 365/1/4 364/1/4 366/1/4
f 365/2/4 366/2/4 367/2/4
f 367/2/4 366/2/4 368/2/4
f 369/2/4 370/2/4 373/2/4
f 369/2/4 373/2/4 376/2/4
f 373/2/4 374/2/4 376/2/4
f 375/2/4 376/2/4 378/2/4
f 376/2/4 374/2/4 379/2/4
f 378/2/4 376/2/4 379/2/4
f 377/2/4 378/2/4 380/2/4
f 380/2/4 378/2/4 381/2/4
f 381/2/4 382/2/4 383/2/4
f 383/2/4 382/2/4 384/2/4
f 371/1/4 372/1/4 385/1/4
f 385/1/4 372/1/4 386/1/4
f 384/2/4 382/2/4 387/2/4
f 387/2/4 382/2/4 388/2/4
f 384/2/4 387/2/4 389/2/4
f 389/2/4 387/2/4 390/2/4
f 391/2/4 392/2/4 398/2/4
f 398/2/4 392/2/4 399/2/4
f 394/2/4 395/2/4 400/2/4
f 400/2/4 395/2/4 401/2/4
f 396/2/4 397/2/4 402/2/4
f 402/2/4 397/2/4 403/2/4
f 404/1/4 405/1/4 406/1/4
f 406/1/4 405/1/4 407/1/4
f 394/2/4 400/2/4 408/2/4
f 393/1/4 394/1/4 412/1/4
f 394/2/4 408/2/4 413/2/4
f 412/1/4 394/1/4 413/1/4
f 408/2/4 409/2/4 413/2/4
f 413/2/4 409/2/4 414/2/4
f 410/2/4 411/2/4 415/2/4
f 415/2/4 411/2/4 416/2/4
f 417/2/4 418/2/4 419/2/4
f 419/2/4 418/2/4 420/2/4
f 421/2/4 422/2/4 424/2/4
f 424/2/4 422/2/4 425/2/4
f 423/2/4 424/2/4 427/2/4
f 425/2/4 426/2/4 427/2/4
f 424/2/4 425/2/4 427/2/4
f 427/2/4 426/2/4 428/2/4
f 428/2/4 426/2/4 429/2/4
f 429/2/4 426/2/4 430/2/4
f 428/2/4 429/2/4 431/2/4
f 431/2/4 429/2/4 432/2/4
f 437/2/5 434/2/5 433/2/5
f 438/2/5 434/2/5 437/2/5
f 439/2/5 436/2/5 435/2/5
f 440/2/5 436/2/5 439/2/5
f 443/1/5 442/1/5 441/1/5
f 444/1/5 442/1/5 443/1/5
f 445/1/5 442/1/5 444/1/5
f 446/1/5 442/1/5 445/1/5
f 448/1/5 445/1/5 444/1/5
f 449/1/5 445/1/5 448/1/5
f 451/1/5 449/1/5 448/1/5
f 451/1/5 450/1/5 449/1/5
f 451/1/5 448/1/5 447/1/5
f 452/1/5 450/1/5 451/1/5
f 457/1/5 454/1/5 453/1/5
f 458/1/5 454/1/5 457/1/5
f 459/1/5 456/1/5 455/1/5
f 460/1/5 456/1/5 459/1/5
f 463/1/5 462/1/5 461/1/5
f 464/1/5 462/1/5 463/1/5
f 467/2/5 466/2/5 465/2/5
f 468/2/5 466/2/5 467/2/5
f 477/2/5 470/2/5 469/2/5
f 478/1/5 471/1/5 470/1/5
f 478/2/5 470/2/5 477/2/5
f 479/2/5 472/2/5 471/2/5
f 479/1/5 471/1/5 478/1/5
f 480/2/5 472/2/5 479/2/5
f 481/2/5 474/2/5 473/2/5
f 482/1/5 475/1/5 474/1/5
f 482/2/5 474/2/5 481/2/5
f 483/2/5 476/2/5 475/2/5
f 483/1/5 475/1/5 482/1/5
f 484/2/5 476/2/5 483/2/5
f 489/2/5 486/2/5 485/2/5
f 490/2/5 486/2/5 489/2/5
f 491/2/5 488/2/5 487/2/5
f 492/2/5 488/2/5 491/2/5
f 495/2/5 494/2/5 493/2/5
f 496/2/5 494/2/5 495/2/5
f 497/2/5 495/2/5 493/2/5
f 498/2/5 495/2/5 497/2/5
f 499/2/5 494/2/5 496/2/5
f 500/2/5 494/2/5 499/2/5
f 501/1/5 499/1/5 498/1/5
f 502/1/5 499/1/5 501/1/5
f 505/2/5 504/2/5 503/2/5
f 506/2/5 504/2/5 505/2/5
f 511/2/5 508/2/5 507/2/5
f 512/2/5 508/2/5 511/2/5
f 513/2/5 510/2/5 509/2/5
f 514/2/5 510/2/5 513/2/5
f 519/2/5 516/2/5 515/2/5
f 520/2/5 516/2/5 519/2/5
f 521/2/5 518/2/5 517/2/5
f 522/2/5 518/2/5 521/2/5
f 523/2/6 524/2/6 527/2/6
f 527/2/6 524/2/6 528/2/6
f 525/2/6 526/2/6 529/2/6
f 529/2/6 526/2/6 530/2/6
f 531/2/6 532/2/6 535/2/6
f 535/2/6 532/2/6 536/2/6
f 533/2/6 534/2/6 537/2/6
f 537/2/6 534/2/6 538/2/6
f 539/2/6 540/2/6 541/2/6
f 541/2/6 540/2/6 542/2/6
f 543/2/6 544/2/6 551/2/6
f 544/1/6 545/1/6 552/1/6
f 551/2/6 544/2/6 552/2/6
f 545/2/6 546/2/6 553/2/6
f 552/1/6 545/1/6 553/1/6
f 553/2/6 546/2/6 554/2/6
f 547/2/6 548/2/6 555/2/6
f 548/1/6 549/1/6 556/1/6
f 555/2/6 548/2/6 556/2/6
f 549/2/6 550/2/6 557/2/6
f 556/1/6 549/1/6 557/1/6
f 557/2/6 550/2/6 558/2/6
f 559/2/6 560/2/6 563/2/6
f 563/2/6 560/2/6 564/2/6
f 561/2/6 562/2/6 565/2/6
f 565/2/6 562/2/6 566/2/6
f 567/2/6 568/2/6 569/2/6
f 569/2/6 568/2/6 570/2/6
f 567/2/6 569/2/6 571/2/6
f 570/2/6 568/2/6 572/2/6
f 567/2/6 571/2/6 573/2/6
f 571/2/6 572/2/6 573/2/6
f 573/2/6 572/2/6 574/2/6
f 572/2/6 568/2/6 575/2/6
f 574/2/6 572/2/6 575/2/6
f 575/2/6 568/2/6 576/2/6
f 574/2/6 575/2/6 577/2/6
f 577/2/6 575/2/6 578/2/6
f 579/2/6 580/2/6 582/2/6
f 582/2/6 580/2/6 583/2/6
f 581/2/6 582/2/6 585/2/6
f 583/2/6 584/2/6 585/2/6
f 582/2/6 583/2/6 585/2/6
f 585/2/6 584/2/6 586/2/6
f 586/2/6 584/2/6 587/2/6
f 587/2/6 584/2/6 588/2/6
f 585/3/6 586/3/6 589/3/6
f 586/2/6 587/2/6 590/2/6
f 589/3/6 586/3/6 590/3/6
f 587/3/6 588/3/6 591/3/6
f 590/2/6 587/2/6 591/2/6
f 591/3/6 588/3/6 592/3/6
f 593/3/6 594/3/6 597/3/6
f 597/3/6 594/3/6 598/3/6
f 595/3/6 596/3/6 599/3/6
f 599/3/6 596/3/6 600/3/6
f 601/2/6 602/2/6 605/2/6
f 605/2/6 602/2/6 606/2/6
f 606/2/6 602/2/6 607/2/6
f 603/2/6 604/2/6 610/2/6
f 610/2/6 604/2/6 611/2/6
f 611/2/6 604/2/6 612/2/6
f 607/2/6 608/2/6 613/2/6
f 606/2/6 607/2/6 613/2/6
f 613/2/6 608/2/6 614/2/6
f 610/2/6 611/2/6 615/2/6
f 609/2/6 610/2/6 615/2/6
f 615/2/6 611/2/6 616/2/6
f 617/1/6 618/1/6 620/1/6
f 620/1/6 618/1/6 621/1/6
f 619/1/6 620/1/6 625/1/6
f 620/1/6 621/1/6 625/1/6
f 621/1/6 622/1/6 625/1/6
f 625/1/6 622/1/6 626/1/6
f 626/1/6 622/1/6 627/1/6
f 627/1/6 622/1/6 628/1/6
f 623/2/6 624/2/6 631/2/6
f 631/2/6 624/2/6 632/2/6
f 629/2/6 630/2/6 633/2/6
f 633/2/6 630/2/6 634/2/6
f 626/1/6 627/1/6 635/1/6
f 635/1/6 627/1/6 636/1/6
f 637/2/6 638/2/6 641/2/6
f 641/2/6 638/2/6 642/2/6
f 639/2/6 640/2/6 643/2/6
f 643/2/6 640/2/6 644/2/6
