# MagicaVoxel @ Ephtracy

# group
g bookshelf

# material
mtllib bookshelf.mtl
usemtl palette

# normals
vn -1 0 0
vn 1 0 0
vn 0 0 1
vn 0 0 -1
vn 0 -1 0
vn 0 1 0

# texcoords
vt 0.0175781 0.5
vt 0.0214844 0.5
vt 0.0253906 0.5
vt 0.123047 0.5
vt 0.146484 0.5
vt 0.154297 0.5
vt 0.212891 0.5
vt 0.279297 0.5
vt 0.451172 0.5
vt 0.466797 0.5
vt 0.560547 0.5
vt 0.623047 0.5
vt 0.650391 0.5
vt 0.767578 0.5
vt 0.841797 0.5

# verts
v -5 0 -5
v -5 0 -10
v -5 12 -5
v -5 12 -10
v -1 4 -5
v -1 4 -9
v -1 7 -5
v -1 7 -9
v 1 9 -5
v 1 9 -9
v 1 12 -5
v 1 12 -9
v 2 4 -5
v 2 4 -9
v 2 7 -5
v 2 7 -9
v 5 4 -5
v 5 4 -9
v 5 7 -5
v 5 7 -9
v -3 4 -5
v -3 4 -9
v -3 7 -5
v -3 7 -9
v 0 9 -5
v 0 9 -9
v 0 12 -5
v 0 12 -9
v 1 4 -5
v 1 4 -9
v 1 7 -5
v 1 7 -9
v 3 4 -5
v 3 4 -9
v 3 7 -5
v 3 7 -9
v 7 0 -5
v 7 0 -10
v 7 12 -5
v 7 12 -10
v -5 0 -5
v -5 12 -5
v -4 4 -5
v -4 7 -5
v -4 9 -5
v -4 12 -5
v -3 4 -5
v -3 7 -5
v -3 9 -5
v -3 12 -5
v -2 9 -5
v -2 12 -5
v -1 4 -5
v -1 7 -5
v -1 9 -5
v -1 12 -5
v 0 4 -5
v 0 7 -5
v 0 9 -5
v 0 12 -5
v 1 4 -5
v 1 7 -5
v 1 9 -5
v 1 12 -5
v 2 4 -5
v 2 7 -5
v 2 9 -5
v 2 12 -5
v 3 4 -5
v 3 7 -5
v 3 9 -5
v 3 12 -5
v 4 9 -5
v 4 12 -5
v 5 4 -5
v 5 7 -5
v 5 9 -5
v 5 12 -5
v 6 4 -5
v 6 7 -5
v 6 9 -5
v 6 12 -5
v 7 0 -5
v 7 12 -5
v -3 4 -9
v -3 7 -9
v -1 4 -9
v -1 7 -9
v 0 9 -9
v 0 12 -9
v 1 4 -9
v 1 7 -9
v 1 9 -9
v 1 12 -9
v 2 4 -9
v 2 7 -9
v 3 4 -9
v 3 7 -9
v 5 4 -9
v 5 7 -9
v -5 0 -10
v -5 12 -10
v 7 0 -10
v 7 12 -10
v -5 0 -5
v 7 0 -5
v -5 0 -10
v 7 0 -10
v -3 7 -5
v -1 7 -5
v 1 7 -5
v 2 7 -5
v 3 7 -5
v 5 7 -5
v -3 7 -9
v -1 7 -9
v 1 7 -9
v 2 7 -9
v 3 7 -9
v 5 7 -9
v -3 4 -5
v -1 4 -5
v 1 4 -5
v 2 4 -5
v 3 4 -5
v 5 4 -5
v -3 4 -9
v -1 4 -9
v 1 4 -9
v 2 4 -9
v 3 4 -9
v 5 4 -9
v 0 9 -5
v 1 9 -5
v 0 9 -9
v 1 9 -9
v -5 12 -5
v -4 12 -5
v -3 12 -5
v -2 12 -5
v -1 12 -5
v 0 12 -5
v 1 12 -5
v 2 12 -5
v 3 12 -5
v 4 12 -5
v 5 12 -5
v 6 12 -5
v 7 12 -5
v -4 12 -9
v -3 12 -9
v -2 12 -9
v -1 12 -9
v 0 12 -9
v 1 12 -9
v 2 12 -9
v 3 12 -9
v 4 12 -9
v 5 12 -9
v 6 12 -9
v -5 12 -10
v 7 12 -10

# faces
f 3/9/1 2/9/1 1/9/1
f 4/9/1 2/9/1 3/9/1
f 7/1/1 6/1/1 5/1/1
f 8/1/1 6/1/1 7/1/1
f 11/15/1 10/15/1 9/15/1
f 12/15/1 10/15/1 11/15/1
f 15/4/1 14/4/1 13/4/1
f 16/4/1 14/4/1 15/4/1
f 19/12/1 18/12/1 17/12/1
f 20/12/1 18/12/1 19/12/1
f 21/8/2 22/8/2 23/8/2
f 23/8/2 22/8/2 24/8/2
f 25/14/2 26/14/2 27/14/2
f 27/14/2 26/14/2 28/14/2
f 29/7/2 30/7/2 31/7/2
f 31/7/2 30/7/2 32/7/2
f 33/4/2 34/4/2 35/4/2
f 35/4/2 34/4/2 36/4/2
f 37/9/2 38/9/2 39/9/2
f 39/9/2 38/9/2 40/9/2
f 43/9/3 42/9/3 41/9/3
f 44/9/3 42/9/3 43/9/3
f 45/9/3 42/9/3 44/9/3
f 46/9/3 42/9/3 45/9/3
f 47/9/3 43/9/3 41/9/3
f 47/8/3 44/8/3 43/8/3
f 48/9/3 45/9/3 44/9/3
f 48/8/3 44/8/3 47/8/3
f 49/6/3 46/6/3 45/6/3
f 49/9/3 45/9/3 48/9/3
f 50/6/3 46/6/3 49/6/3
f 51/9/3 49/9/3 48/9/3
f 51/10/3 50/10/3 49/10/3
f 52/10/3 50/10/3 51/10/3
f 53/9/3 47/9/3 41/9/3
f 54/9/3 51/9/3 48/9/3
f 55/11/3 52/11/3 51/11/3
f 55/9/3 51/9/3 54/9/3
f 56/11/3 52/11/3 55/11/3
f 57/9/3 53/9/3 41/9/3
f 57/1/3 54/1/3 53/1/3
f 58/9/3 55/9/3 54/9/3
f 58/1/3 54/1/3 57/1/3
f 59/14/3 56/14/3 55/14/3
f 59/9/3 55/9/3 58/9/3
f 60/14/3 56/14/3 59/14/3
f 61/7/3 58/7/3 57/7/3
f 61/9/3 57/9/3 41/9/3
f 62/9/3 59/9/3 58/9/3
f 62/7/3 58/7/3 61/7/3
f 63/9/3 59/9/3 62/9/3
f 65/9/3 61/9/3 41/9/3
f 66/9/3 63/9/3 62/9/3
f 67/15/3 64/15/3 63/15/3
f 67/9/3 63/9/3 66/9/3
f 68/15/3 64/15/3 67/15/3
f 69/4/3 66/4/3 65/4/3
f 69/9/3 65/9/3 41/9/3
f 70/9/3 67/9/3 66/9/3
f 70/4/3 66/4/3 69/4/3
f 71/13/3 68/13/3 67/13/3
f 71/9/3 67/9/3 70/9/3
f 72/13/3 68/13/3 71/13/3
f 73/9/3 71/9/3 70/9/3
f 73/2/3 72/2/3 71/2/3
f 74/2/3 72/2/3 73/2/3
f 75/9/3 69/9/3 41/9/3
f 76/9/3 73/9/3 70/9/3
f 77/5/3 74/5/3 73/5/3
f 77/9/3 73/9/3 76/9/3
f 78/5/3 74/5/3 77/5/3
f 79/9/3 75/9/3 41/9/3
f 79/12/3 76/12/3 75/12/3
f 80/9/3 77/9/3 76/9/3
f 80/12/3 76/12/3 79/12/3
f 81/3/3 78/3/3 77/3/3
f 81/9/3 77/9/3 80/9/3
f 82/3/3 78/3/3 81/3/3
f 83/9/3 80/9/3 79/9/3
f 83/9/3 79/9/3 41/9/3
f 83/9/3 82/9/3 81/9/3
f 83/9/3 81/9/3 80/9/3
f 84/9/3 82/9/3 83/9/3
f 87/9/3 86/9/3 85/9/3
f 88/9/3 86/9/3 87/9/3
f 93/9/3 90/9/3 89/9/3
f 94/9/3 90/9/3 93/9/3
f 95/9/3 92/9/3 91/9/3
f 96/9/3 92/9/3 95/9/3
f 99/9/3 98/9/3 97/9/3
f 100/9/3 98/9/3 99/9/3
f 101/9/4 102/9/4 103/9/4
f 103/9/4 102/9/4 104/9/4
f 107/9/5 106/9/5 105/9/5
f 108/9/5 106/9/5 107/9/5
f 115/9/5 110/9/5 109/9/5
f 116/9/5 110/9/5 115/9/5
f 117/9/5 112/9/5 111/9/5
f 118/9/5 112/9/5 117/9/5
f 119/9/5 114/9/5 113/9/5
f 120/9/5 114/9/5 119/9/5
f 121/9/6 122/9/6 127/9/6
f 127/9/6 122/9/6 128/9/6
f 123/9/6 124/9/6 129/9/6
f 129/9/6 124/9/6 130/9/6
f 125/9/6 126/9/6 131/9/6
f 131/9/6 126/9/6 132/9/6
f 133/9/6 134/9/6 135/9/6
f 135/9/6 134/9/6 136/9/6
f 137/9/6 138/9/6 150/9/6
f 138/6/6 139/6/6 150/6/6
f 139/10/6 140/10/6 151/10/6
f 150/6/6 139/6/6 151/6/6
f 140/11/6 141/11/6 152/11/6
f 151/10/6 140/10/6 152/10/6
f 141/14/6 142/14/6 153/14/6
f 152/11/6 141/11/6 153/11/6
f 153/14/6 142/14/6 154/14/6
f 143/15/6 144/15/6 155/15/6
f 144/13/6 145/13/6 156/13/6
f 155/15/6 144/15/6 156/15/6
f 145/2/6 146/2/6 157/2/6
f 156/13/6 145/13/6 157/13/6
f 146/5/6 147/5/6 158/5/6
f 157/2/6 146/2/6 158/2/6
f 147/3/6 148/3/6 159/3/6
f 158/5/6 147/5/6 159/5/6
f 148/9/6 149/9/6 160/9/6
f 159/3/6 148/3/6 160/3/6
f 158/9/6 159/9/6 161/9/6
f 157/9/6 158/9/6 161/9/6
f 159/9/6 160/9/6 161/9/6
f 137/9/6 150/9/6 161/9/6
f 152/9/6 153/9/6 161/9/6
f 156/9/6 157/9/6 161/9/6
f 155/9/6 156/9/6 161/9/6
f 154/9/6 155/9/6 161/9/6
f 153/9/6 154/9/6 161/9/6
f 151/9/6 152/9/6 161/9/6
f 150/9/6 151/9/6 161/9/6
f 160/9/6 149/9/6 162/9/6
f 161/9/6 160/9/6 162/9/6
