# MagicaVoxel @ Ephtracy

# group
o 

# material
mtllib campfire.mtl
usemtl palette

# normals
vn -1 0 0
vn 1 0 0
vn 0 0 1
vn 0 0 -1
vn 0 -1 0
vn 0 1 0

# texcoords
vt 0.0214844 0.5
vt 0.869141 0.5

# verts
v -0.5 0 0.4
v -0.5 0 0.3
v -0.5 0 -0.4
v -0.5 0 -0.5
v -0.5 0.1 0.4
v -0.5 0.1 0.3
v -0.5 0.1 -0.4
v -0.5 0.1 -0.5
v -0.4 0 0.5
v -0.4 0 0.4
v -0.4 0 0.3
v -0.4 0 0.2
v -0.4 0 -0.3
v -0.4 0 -0.4
v -0.4 0 -0.5
v -0.4 0 -0.6
v -0.4 0.1 0.5
v -0.4 0.1 0.4
v -0.4 0.1 0.3
v -0.4 0.1 0.2
v -0.4 0.1 -0.3
v -0.4 0.1 -0.4
v -0.4 0.1 -0.5
v -0.4 0.1 -0.6
v -0.3 0 -0.2
v -0.3 0 -0.3
v -0.3 0.1 0.3
v -0.3 0.1 0.2
v -0.3 0.1 -0.2
v -0.3 0.1 -0.3
v -0.3 0.2 0.3
v -0.3 0.2 -0.3
v -0.2 0 0.2
v -0.2 0 0.0999999
v -0.2 0 -5.96046e-08
v -0.2 0 -0.2
v -0.2 0.1 0.2
v -0.2 0.1 0.0999999
v -0.2 0.1 -5.96046e-08
v -0.2 0.1 -0.2
v -0.2 0.2 0.2
v -0.2 0.2 -0.2
v -0.2 0.3 0.2
v -0.2 0.3 -0.2
v -0.1 0 0.0999999
v -0.1 0 -5.96046e-08
v -0.1 0.1 0.0999999
v -0.1 0.1 -5.96046e-08
v -0.1 0.3 0.2
v -0.1 0.3 0.0999999
v -0.1 0.3 -5.96046e-08
v -0.1 0.3 -0.1
v -0.1 0.4 0.2
v -0.1 0.4 0.0999999
v -0.1 0.5 -5.96046e-08
v -0.1 0.5 -0.1
v -0.1 0.5 -0.2
v -0.1 0.6 0.2
v -0.1 0.6 0.0999999
v -0.1 0.6 -5.96046e-08
v -0.1 0.6 -0.1
v -0.1 0.6 -0.2
v -0.1 0.7 0.2
v -0.1 0.7 0.0999999
v -0.1 0.8 -5.96046e-08
v -0.1 0.8 -0.1
v 0 0.3 0.0999999
v 0 0.3 -5.96046e-08
v 0 0.3 -0.1
v 0 0.3 -0.2
v 0 0.4 0.2
v 0 0.4 0.0999999
v 0 0.4 -5.96046e-08
v 0 0.4 -0.1
v 0 0.4 -0.2
v 0 0.5 0.2
v 0 0.5 0.0999999
v 0 0.5 -5.96046e-08
v 0 0.6 0.0999999
v 0 0.6 -5.96046e-08
v 0 0.6 -0.1
v 0 0.6 -0.2
v 0 0.7 0.0999999
v 0 0.7 -5.96046e-08
v 0 0.7 -0.1
v 0 0.7 -0.2
v 0.1 0 0.2
v 0.1 0 0.0999999
v 0.1 0.1 0.2
v 0.1 0.1 0.0999999
v 0.1 0.5 -0.1
v 0.1 0.5 -0.2
v 0.1 0.6 0.2
v 0.1 0.6 0.0999999
v 0.1 0.6 -0.1
v 0.1 0.6 -0.2
v 0.1 0.7 0.0999999
v 0.1 0.7 -5.96046e-08
v 0.1 0.7 -0.1
v 0.1 0.8 0.2
v 0.1 0.8 0.0999999
v 0.1 0.8 -5.96046e-08
v 0.1 0.8 -0.1
v 0.2 0 0.4
v 0.2 0 0.2
v 0.2 0 0.0999999
v 0.2 0 -5.96046e-08
v 0.2 0.1 0.4
v 0.2 0.1 0.3
v 0.2 0.1 0.2
v 0.2 0.1 0.0999999
v 0.2 0.1 -5.96046e-08
v 0.2 0.7 -0.1
v 0.2 0.7 -0.2
v 0.2 0.8 -0.1
v 0.2 0.9 -0.1
v 0.2 0.9 -0.2
v 0.3 0 0.5
v 0.3 0 0.4
v 0.3 0 -0.3
v 0.3 0 -0.5
v 0.3 0.1 0.5
v 0.3 0.1 0.4
v 0.3 0.1 -0.3
v 0.3 0.1 -0.5
v 0.4 0 0.6
v 0.4 0 0.5
v 0.4 0 -0.5
v 0.4 0 -0.6
v 0.4 0.1 0.6
v 0.4 0.1 0.5
v 0.4 0.1 -0.5
v 0.4 0.1 -0.6
v -0.3 0 0.5
v -0.3 0 0.4
v -0.3 0 -0.5
v -0.3 0 -0.6
v -0.3 0.1 0.5
v -0.3 0.1 0.4
v -0.3 0.1 -0.5
v -0.3 0.1 -0.6
v -0.2 0 0.4
v -0.2 0 0.2
v -0.2 0 -0.3
v -0.2 0 -0.5
v -0.2 0.1 0.4
v -0.2 0.1 0.3
v -0.2 0.1 0.2
v -0.2 0.1 -0.3
v -0.2 0.1 -0.5
v -0.1 0 0.2
v -0.1 0 0.0999999
v -0.1 0.1 0.2
v -0.1 0.1 0.0999999
v 0 0.3 0.2
v 0 0.3 0.0999999
v 0 0.4 0.2
v 0 0.4 0.0999999
v 0 0.4 -5.96046e-08
v 0 0.4 -0.1
v 0 0.5 -5.96046e-08
v 0 0.5 -0.1
v 0 0.5 -0.2
v 0 0.6 0.2
v 0 0.6 0.0999999
v 0 0.6 -0.1
v 0 0.6 -0.2
v 0 0.7 0.2
v 0 0.7 0.0999999
v 0 0.7 -5.96046e-08
v 0 0.7 -0.1
v 0 0.8 -5.96046e-08
v 0 0.8 -0.1
v 0.1 0 0.0999999
v 0.1 0 -5.96046e-08
v 0.1 0.1 0.0999999
v 0.1 0.1 -5.96046e-08
v 0.1 0.3 -0.1
v 0.1 0.3 -0.2
v 0.1 0.4 -0.1
v 0.1 0.4 -0.2
v 0.1 0.5 0.0999999
v 0.1 0.5 -5.96046e-08
v 0.1 0.6 0.0999999
v 0.1 0.6 -5.96046e-08
v 0.1 0.6 -0.1
v 0.1 0.6 -0.2
v 0.1 0.7 -5.96046e-08
v 0.1 0.7 -0.1
v 0.1 0.7 -0.2
v 0.2 0.3 0.0999999
v 0.2 0.3 -0.1
v 0.2 0.4 0.2
v 0.2 0.4 0.0999999
v 0.2 0.4 -0.1
v 0.2 0.5 0.2
v 0.2 0.5 0.0999999
v 0.2 0.5 -0.1
v 0.2 0.5 -0.2
v 0.2 0.6 0.2
v 0.2 0.6 -5.96046e-08
v 0.2 0.6 -0.1
v 0.2 0.6 -0.2
v 0.2 0.7 0.0999999
v 0.2 0.7 -5.96046e-08
v 0.2 0.7 -0.1
v 0.2 0.8 0.2
v 0.2 0.8 0.0999999
v 0.2 0.8 -5.96046e-08
v 0.2 0.8 -0.1
v 0.3 0 0.2
v 0.3 0 -0.2
v 0.3 0.1 0.3
v 0.3 0.1 0.2
v 0.3 0.1 -0.2
v 0.3 0.1 -0.3
v 0.3 0.2 0.3
v 0.3 0.2 0.2
v 0.3 0.2 -0.2
v 0.3 0.2 -0.3
v 0.3 0.3 0.2
v 0.3 0.3 -0.2
v 0.3 0.7 -0.1
v 0.3 0.7 -0.2
v 0.3 0.9 -0.1
v 0.3 0.9 -0.2
v 0.4 0 0.3
v 0.4 0 0.2
v 0.4 0 -0.2
v 0.4 0 -0.3
v 0.4 0.1 0.3
v 0.4 0.1 0.2
v 0.4 0.1 -0.2
v 0.4 0.1 -0.3
v 0.5 0 0.6
v 0.5 0 0.5
v 0.5 0 0.4
v 0.5 0 0.3
v 0.5 0 -0.3
v 0.5 0 -0.4
v 0.5 0 -0.5
v 0.5 0 -0.6
v 0.5 0.1 0.6
v 0.5 0.1 0.5
v 0.5 0.1 0.4
v 0.5 0.1 0.3
v 0.5 0.1 -0.3
v 0.5 0.1 -0.4
v 0.5 0.1 -0.5
v 0.5 0.1 -0.6
v 0.6 0 0.5
v 0.6 0 0.4
v 0.6 0 -0.4
v 0.6 0 -0.5
v 0.6 0.1 0.5
v 0.6 0.1 0.4
v 0.6 0.1 -0.4
v 0.6 0.1 -0.5
v 0.4 0 0.6
v 0.4 0.1 0.6
v 0.5 0 0.6
v 0.5 0.1 0.6
v -0.4 0 0.5
v -0.4 0.1 0.5
v -0.3 0 0.5
v -0.3 0.1 0.5
v 0.3 0 0.5
v 0.3 0.1 0.5
v 0.4 0 0.5
v 0.4 0.1 0.5
v 0.5 0 0.5
v 0.5 0.1 0.5
v 0.6 0 0.5
v 0.6 0.1 0.5
v -0.5 0 0.4
v -0.5 0.1 0.4
v -0.4 0 0.4
v -0.4 0.1 0.4
v -0.3 0 0.4
v -0.3 0.1 0.4
v -0.2 0 0.4
v -0.2 0.1 0.4
v 0.2 0 0.4
v 0.2 0.1 0.4
v 0.3 0 0.4
v 0.3 0.1 0.4
v -0.3 0.1 0.3
v -0.3 0.2 0.3
v -0.2 0.1 0.3
v 0.2 0.1 0.3
v 0.3 0.1 0.3
v 0.3 0.2 0.3
v -0.2 0 0.2
v -0.2 0.1 0.2
v -0.2 0.2 0.2
v -0.2 0.3 0.2
v -0.1 0 0.2
v -0.1 0.1 0.2
v -0.1 0.3 0.2
v -0.1 0.4 0.2
v -0.1 0.6 0.2
v -0.1 0.7 0.2
v 0 0.3 0.2
v 0 0.4 0.2
v 0 0.5 0.2
v 0 0.6 0.2
v 0 0.7 0.2
v 0.1 0 0.2
v 0.1 0.1 0.2
v 0.1 0.6 0.2
v 0.1 0.8 0.2
v 0.2 0 0.2
v 0.2 0.1 0.2
v 0.2 0.4 0.2
v 0.2 0.5 0.2
v 0.2 0.6 0.2
v 0.2 0.8 0.2
v 0.3 0.2 0.2
v 0.3 0.3 0.2
v -0.1 0 0.0999999
v -0.1 0.1 0.0999999
v 0 0.3 0.0999999
v 0 0.4 0.0999999
v 0 0.5 0.0999999
v 0 0.6 0.0999999
v 0 0.7 0.0999999
v 0.1 0 0.0999999
v 0.1 0.1 0.0999999
v 0.1 0.5 0.0999999
v 0.1 0.6 0.0999999
v 0.1 0.7 0.0999999
v 0.2 0.3 0.0999999
v 0.2 0.4 0.0999999
v -0.2 0 -5.96046e-08
v -0.2 0.1 -5.96046e-08
v -0.1 0 -5.96046e-08
v -0.1 0.1 -5.96046e-08
v -0.1 0.3 -5.96046e-08
v -0.1 0.5 -5.96046e-08
v -0.1 0.6 -5.96046e-08
v -0.1 0.8 -5.96046e-08
v 0 0.3 -5.96046e-08
v 0 0.4 -5.96046e-08
v 0 0.5 -5.96046e-08
v 0 0.6 -5.96046e-08
v 0 0.7 -5.96046e-08
v 0 0.8 -5.96046e-08
v 0.1 0 -5.96046e-08
v 0.1 0.1 -5.96046e-08
v 0.1 0.7 -5.96046e-08
v 0.1 0.8 -5.96046e-08
v 0.2 0 -5.96046e-08
v 0.2 0.1 -5.96046e-08
v 0.2 0.7 -5.96046e-08
v 0.2 0.8 -5.96046e-08
v -0.1 0.5 -0.1
v -0.1 0.6 -0.1
v 0 0.5 -0.1
v 0 0.6 -0.1
v 0.1 0.5 -0.1
v 0.1 0.6 -0.1
v 0.2 0.5 -0.1
v 0.2 0.6 -0.1
v 0.2 0.7 -0.1
v 0.2 0.8 -0.1
v 0.2 0.9 -0.1
v 0.3 0.7 -0.1
v 0.3 0.9 -0.1
v -0.3 0 -0.2
v -0.3 0.1 -0.2
v -0.2 0 -0.2
v -0.2 0.1 -0.2
v 0.3 0 -0.2
v 0.3 0.1 -0.2
v 0.4 0 -0.2
v 0.4 0.1 -0.2
v -0.4 0 -0.3
v -0.4 0.1 -0.3
v -0.3 0 -0.3
v -0.3 0.1 -0.3
v 0.4 0 -0.3
v 0.4 0.1 -0.3
v 0.5 0 -0.3
v 0.5 0.1 -0.3
v -0.5 0 -0.4
v -0.5 0.1 -0.4
v -0.4 0 -0.4
v -0.4 0.1 -0.4
v 0.5 0 -0.4
v 0.5 0.1 -0.4
v 0.6 0 -0.4
v 0.6 0.1 -0.4
v 0.5 0 0.4
v 0.5 0.1 0.4
v 0.6 0 0.4
v 0.6 0.1 0.4
v -0.5 0 0.3
v -0.5 0.1 0.3
v -0.4 0 0.3
v -0.4 0.1 0.3
v 0.4 0 0.3
v 0.4 0.1 0.3
v 0.5 0 0.3
v 0.5 0.1 0.3
v -0.4 0 0.2
v -0.4 0.1 0.2
v -0.3 0.1 0.2
v -0.2 0 0.2
v -0.2 0.1 0.2
v 0.3 0 0.2
v 0.3 0.1 0.2
v 0.4 0 0.2
v 0.4 0.1 0.2
v -0.2 0 0.0999999
v -0.2 0.1 0.0999999
v -0.1 0 0.0999999
v -0.1 0.1 0.0999999
v -0.1 0.3 0.0999999
v -0.1 0.4 0.0999999
v -0.1 0.6 0.0999999
v -0.1 0.7 0.0999999
v 0 0.3 0.0999999
v 0 0.4 0.0999999
v 0 0.5 0.0999999
v 0 0.6 0.0999999
v 0 0.7 0.0999999
v 0.1 0 0.0999999
v 0.1 0.1 0.0999999
v 0.1 0.5 0.0999999
v 0.1 0.7 0.0999999
v 0.1 0.8 0.0999999
v 0.2 0 0.0999999
v 0.2 0.1 0.0999999
v 0.2 0.4 0.0999999
v 0.2 0.5 0.0999999
v 0.2 0.7 0.0999999
v 0.2 0.8 0.0999999
v 0 0.5 -5.96046e-08
v 0 0.6 -5.96046e-08
v 0.1 0.5 -5.96046e-08
v 0.1 0.6 -5.96046e-08
v 0.1 0.7 -5.96046e-08
v 0.2 0.6 -5.96046e-08
v 0.2 0.7 -5.96046e-08
v -0.1 0.3 -0.1
v -0.1 0.5 -0.1
v -0.1 0.6 -0.1
v -0.1 0.8 -0.1
v 0 0.3 -0.1
v 0 0.4 -0.1
v 0 0.5 -0.1
v 0 0.6 -0.1
v 0 0.7 -0.1
v 0 0.8 -0.1
v 0.1 0.3 -0.1
v 0.1 0.4 -0.1
v 0.1 0.7 -0.1
v 0.1 0.8 -0.1
v 0.2 0.3 -0.1
v 0.2 0.4 -0.1
v 0.2 0.7 -0.1
v 0.2 0.8 -0.1
v -0.2 0.2 -0.2
v -0.2 0.3 -0.2
v -0.1 0.5 -0.2
v -0.1 0.6 -0.2
v 0 0.3 -0.2
v 0 0.4 -0.2
v 0 0.5 -0.2
v 0 0.6 -0.2
v 0 0.7 -0.2
v 0.1 0.3 -0.2
v 0.1 0.4 -0.2
v 0.1 0.5 -0.2
v 0.1 0.6 -0.2
v 0.1 0.7 -0.2
v 0.2 0.5 -0.2
v 0.2 0.6 -0.2
v 0.2 0.7 -0.2
v 0.2 0.9 -0.2
v 0.3 0.2 -0.2
v 0.3 0.3 -0.2
v 0.3 0.7 -0.2
v 0.3 0.9 -0.2
v -0.3 0.1 -0.3
v -0.3 0.2 -0.3
v -0.2 0 -0.3
v -0.2 0.1 -0.3
v 0.3 0 -0.3
v 0.3 0.1 -0.3
v 0.3 0.2 -0.3
v -0.5 0 -0.5
v -0.5 0.1 -0.5
v -0.4 0 -0.5
v -0.4 0.1 -0.5
v -0.3 0 -0.5
v -0.3 0.1 -0.5
v -0.2 0 -0.5
v -0.2 0.1 -0.5
v 0.3 0 -0.5
v 0.3 0.1 -0.5
v 0.4 0 -0.5
v 0.4 0.1 -0.5
v 0.5 0 -0.5
v 0.5 0.1 -0.5
v 0.6 0 -0.5
v 0.6 0.1 -0.5
v -0.4 0 -0.6
v -0.4 0.1 -0.6
v -0.3 0 -0.6
v -0.3 0.1 -0.6
v 0.4 0 -0.6
v 0.4 0.1 -0.6
v 0.5 0 -0.6
v 0.5 0.1 -0.6
v 0.4 0 0.6
v 0.5 0 0.6
v -0.4 0 0.5
v -0.3 0 0.5
v 0.3 0 0.5
v 0.4 0 0.5
v 0.5 0 0.5
v 0.6 0 0.5
v -0.5 0 0.4
v -0.4 0 0.4
v -0.3 0 0.4
v -0.2 0 0.4
v 0.2 0 0.4
v 0.3 0 0.4
v 0.5 0 0.4
v 0.6 0 0.4
v -0.5 0 0.3
v -0.4 0 0.3
v 0.4 0 0.3
v 0.5 0 0.3
v -0.4 0 0.2
v -0.2 0 0.2
v -0.1 0 0.2
v 0.1 0 0.2
v 0.2 0 0.2
v 0.3 0 0.2
v 0.4 0 0.2
v -0.2 0 0.0999999
v -0.1 0 0.0999999
v 0.1 0 0.0999999
v 0.2 0 0.0999999
v -0.2 0 -5.96046e-08
v -0.1 0 -5.96046e-08
v 0.1 0 -5.96046e-08
v 0.2 0 -5.96046e-08
v -0.3 0 -0.2
v -0.2 0 -0.2
v 0.3 0 -0.2
v 0.4 0 -0.2
v -0.4 0 -0.3
v -0.3 0 -0.3
v -0.2 0 -0.3
v 0.3 0 -0.3
v 0.4 0 -0.3
v 0.5 0 -0.3
v -0.5 0 -0.4
v -0.4 0 -0.4
v 0.5 0 -0.4
v 0.6 0 -0.4
v -0.5 0 -0.5
v -0.4 0 -0.5
v -0.3 0 -0.5
v -0.2 0 -0.5
v 0.3 0 -0.5
v 0.4 0 -0.5
v 0.5 0 -0.5
v 0.6 0 -0.5
v -0.4 0 -0.6
v -0.3 0 -0.6
v 0.4 0 -0.6
v 0.5 0 -0.6
v -0.2 0.1 0.3
v 0.2 0.1 0.3
v -0.3 0.1 0.2
v -0.2 0.1 0.2
v -0.1 0.1 0.2
v 0.1 0.1 0.2
v 0.2 0.1 0.2
v -0.2 0.1 0.0999999
v -0.1 0.1 0.0999999
v 0.1 0.1 0.0999999
v 0.2 0.1 0.0999999
v -0.2 0.1 -5.96046e-08
v -0.1 0.1 -5.96046e-08
v 0.1 0.1 -5.96046e-08
v 0.2 0.1 -5.96046e-08
v -0.3 0.1 -0.2
v -0.2 0.1 -0.2
v 0 0.4 0.2
v 0.2 0.4 0.2
v 0 0.4 0.0999999
v 0.2 0.4 0.0999999
v 0 0.5 0.0999999
v 0.1 0.5 0.0999999
v 0 0.5 -5.96046e-08
v 0.1 0.5 -5.96046e-08
v -0.1 0.5 -0.1
v 0 0.5 -0.1
v 0.1 0.5 -0.1
v 0.2 0.5 -0.1
v -0.1 0.5 -0.2
v 0 0.5 -0.2
v 0.1 0.5 -0.2
v 0.2 0.5 -0.2
v -0.1 0.6 0.2
v 0 0.6 0.2
v 0.1 0.6 0.2
v 0.2 0.6 0.2
v -0.1 0.6 0.0999999
v 0 0.6 0.0999999
v 0.1 0.6 0.0999999
v -0.1 0.6 -5.96046e-08
v 0 0.6 -5.96046e-08
v 0.1 0.6 -5.96046e-08
v 0.2 0.6 -5.96046e-08
v -0.1 0.6 -0.1
v 0 0.6 -0.1
v 0.1 0.6 -0.1
v 0 0.6 -0.2
v 0.1 0.6 -0.2
v 0.1 0.7 -5.96046e-08
v 0.2 0.7 -5.96046e-08
v 0.1 0.7 -0.1
v 0.2 0.7 -0.1
v 0.3 0.7 -0.1
v 0.2 0.7 -0.2
v 0.3 0.7 -0.2
v 0.4 0.1 0.6
v 0.5 0.1 0.6
v -0.4 0.1 0.5
v -0.3 0.1 0.5
v 0.3 0.1 0.5
v 0.4 0.1 0.5
v 0.5 0.1 0.5
v 0.6 0.1 0.5
v -0.5 0.1 0.4
v -0.4 0.1 0.4
v -0.3 0.1 0.4
v -0.2 0.1 0.4
v 0.2 0.1 0.4
v 0.3 0.1 0.4
v 0.5 0.1 0.4
v 0.6 0.1 0.4
v -0.5 0.1 0.3
v -0.4 0.1 0.3
v -0.3 0.1 0.3
v -0.2 0.1 0.3
v 0.2 0.1 0.3
v 0.3 0.1 0.3
v 0.4 0.1 0.3
v 0.5 0.1 0.3
v -0.4 0.1 0.2
v -0.3 0.1 0.2
v 0.3 0.1 0.2
v 0.4 0.1 0.2
v 0.3 0.1 -0.2
v 0.4 0.1 -0.2
v -0.4 0.1 -0.3
v -0.3 0.1 -0.3
v -0.2 0.1 -0.3
v 0.3 0.1 -0.3
v 0.4 0.1 -0.3
v 0.5 0.1 -0.3
v -0.5 0.1 -0.4
v -0.4 0.1 -0.4
v 0.5 0.1 -0.4
v 0.6 0.1 -0.4
v -0.5 0.1 -0.5
v -0.4 0.1 -0.5
v -0.3 0.1 -0.5
v -0.2 0.1 -0.5
v 0.3 0.1 -0.5
v 0.4 0.1 -0.5
v 0.5 0.1 -0.5
v 0.6 0.1 -0.5
v -0.4 0.1 -0.6
v -0.3 0.1 -0.6
v 0.4 0.1 -0.6
v 0.5 0.1 -0.6
v -0.3 0.2 0.3
v 0.3 0.2 0.3
v -0.2 0.2 0.2
v 0.3 0.2 0.2
v -0.2 0.2 -0.2
v 0.3 0.2 -0.2
v -0.3 0.2 -0.3
v 0.3 0.2 -0.3
v -0.2 0.3 0.2
v -0.1 0.3 0.2
v 0 0.3 0.2
v 0.3 0.3 0.2
v -0.1 0.3 0.0999999
v 0 0.3 0.0999999
v 0.2 0.3 0.0999999
v -0.1 0.3 -5.96046e-08
v 0 0.3 -5.96046e-08
v -0.1 0.3 -0.1
v 0 0.3 -0.1
v 0.1 0.3 -0.1
v 0.2 0.3 -0.1
v -0.2 0.3 -0.2
v 0 0.3 -0.2
v 0.1 0.3 -0.2
v 0.3 0.3 -0.2
v -0.1 0.4 0.2
v 0 0.4 0.2
v -0.1 0.4 0.0999999
v 0 0.4 0.0999999
v 0.2 0.4 0.0999999
v 0 0.4 -5.96046e-08
v 0 0.4 -0.1
v 0.1 0.4 -0.1
v 0.2 0.4 -0.1
v 0 0.4 -0.2
v 0.1 0.4 -0.2
v 0 0.5 0.2
v 0.2 0.5 0.2
v 0 0.5 0.0999999
v 0.1 0.5 0.0999999
v 0.2 0.5 0.0999999
v -0.1 0.5 -5.96046e-08
v 0 0.5 -5.96046e-08
v -0.1 0.5 -0.1
v 0 0.5 -0.1
v -0.1 0.6 -0.1
v 0 0.6 -0.1
v 0.1 0.6 -0.1
v 0.2 0.6 -0.1
v -0.1 0.6 -0.2
v 0 0.6 -0.2
v 0.1 0.6 -0.2
v 0.2 0.6 -0.2
v -0.1 0.7 0.2
v 0 0.7 0.2
v -0.1 0.7 0.0999999
v 0 0.7 0.0999999
v 0.1 0.7 0.0999999
v 0.2 0.7 0.0999999
v 0 0.7 -5.96046e-08
v 0.1 0.7 -5.96046e-08
v 0.2 0.7 -5.96046e-08
v 0 0.7 -0.1
v 0.1 0.7 -0.1
v 0 0.7 -0.2
v 0.1 0.7 -0.2
v 0.1 0.8 0.2
v 0.2 0.8 0.2
v 0.1 0.8 0.0999999
v 0.2 0.8 0.0999999
v -0.1 0.8 -5.96046e-08
v 0 0.8 -5.96046e-08
v 0.1 0.8 -5.96046e-08
v 0.2 0.8 -5.96046e-08
v -0.1 0.8 -0.1
v 0 0.8 -0.1
v 0.1 0.8 -0.1
v 0.2 0.8 -0.1
v 0.2 0.9 -0.1
v 0.3 0.9 -0.1
v 0.2 0.9 -0.2
v 0.3 0.9 -0.2

# faces
f 5/2/1 2/2/1 1/2/1
f 6/2/1 2/2/1 5/2/1
f 7/2/1 4/2/1 3/2/1
f 8/2/1 4/2/1 7/2/1
f 17/2/1 10/2/1 9/2/1
f 18/2/1 10/2/1 17/2/1
f 19/2/1 12/2/1 11/2/1
f 20/2/1 12/2/1 19/2/1
f 21/2/1 14/2/1 13/2/1
f 22/2/1 14/2/1 21/2/1
f 23/2/1 16/2/1 15/2/1
f 24/2/1 16/2/1 23/2/1
f 29/2/1 26/2/1 25/2/1
f 30/2/1 26/2/1 29/2/1
f 31/2/1 28/2/1 27/2/1
f 31/2/1 29/2/1 28/2/1
f 31/2/1 30/2/1 29/2/1
f 32/2/1 30/2/1 31/2/1
f 37/2/1 34/2/1 33/2/1
f 38/2/1 34/2/1 37/2/1
f 39/2/1 36/2/1 35/2/1
f 40/2/1 36/2/1 39/2/1
f 43/2/1 42/2/1 41/2/1
f 44/2/1 42/2/1 43/2/1
f 47/2/1 46/2/1 45/2/1
f 48/2/1 46/2/1 47/2/1
f 53/1/1 50/1/1 49/1/1
f 54/1/1 50/1/1 53/1/1
f 55/1/1 52/1/1 51/1/1
f 56/1/1 52/1/1 55/1/1
f 61/1/1 57/1/1 56/1/1
f 62/1/1 57/1/1 61/1/1
f 63/1/1 59/1/1 58/1/1
f 64/1/1 59/1/1 63/1/1
f 65/1/1 61/1/1 60/1/1
f 66/1/1 61/1/1 65/1/1
f 72/1/1 68/1/1 67/1/1
f 73/1/1 68/1/1 72/1/1
f 74/1/1 70/1/1 69/1/1
f 75/1/1 70/1/1 74/1/1
f 76/1/1 72/1/1 71/1/1
f 77/1/1 72/1/1 76/1/1
f 79/1/1 78/1/1 77/1/1
f 80/1/1 78/1/1 79/1/1
f 83/1/1 80/1/1 79/1/1
f 84/1/1 80/1/1 83/1/1
f 85/1/1 82/1/1 81/1/1
f 86/1/1 82/1/1 85/1/1
f 89/2/1 88/2/1 87/2/1
f 90/2/1 88/2/1 89/2/1
f 95/1/1 92/1/1 91/1/1
f 96/1/1 92/1/1 95/1/1
f 97/1/1 94/1/1 93/1/1
f 100/1/1 97/1/1 93/1/1
f 101/1/1 97/1/1 100/1/1
f 102/1/1 99/1/1 98/1/1
f 103/1/1 99/1/1 102/1/1
f 108/2/1 105/2/1 104/2/1
f 109/2/1 105/2/1 108/2/1
f 110/2/1 105/2/1 109/2/1
f 111/2/1 107/2/1 106/2/1
f 112/2/1 107/2/1 111/2/1
f 115/1/1 114/1/1 113/1/1
f 116/1/1 114/1/1 115/1/1
f 117/1/1 114/1/1 116/1/1
f 122/2/1 119/2/1 118/2/1
f 123/2/1 119/2/1 122/2/1
f 124/2/1 121/2/1 120/2/1
f 125/2/1 121/2/1 124/2/1
f 130/2/1 127/2/1 126/2/1
f 131/2/1 127/2/1 130/2/1
f 132/2/1 129/2/1 128/2/1
f 133/2/1 129/2/1 132/2/1
f 134/2/2 135/2/2 138/2/2
f 138/2/2 135/2/2 139/2/2
f 136/2/2 137/2/2 140/2/2
f 140/2/2 137/2/2 141/2/2
f 142/2/2 143/2/2 146/2/2
f 146/2/2 143/2/2 147/2/2
f 147/2/2 143/2/2 148/2/2
f 144/2/2 145/2/2 149/2/2
f 149/2/2 145/2/2 150/2/2
f 151/2/2 152/2/2 153/2/2
f 153/2/2 152/2/2 154/2/2
f 155/1/2 156/1/2 157/1/2
f 157/1/2 156/1/2 158/1/2
f 159/1/2 160/1/2 161/1/2
f 161/1/2 160/1/2 162/1/2
f 162/1/2 163/1/2 166/1/2
f 166/1/2 163/1/2 167/1/2
f 164/1/2 165/1/2 168/1/2
f 168/1/2 165/1/2 169/1/2
f 170/1/2 171/1/2 172/1/2
f 172/1/2 171/1/2 173/1/2
f 174/2/2 175/2/2 176/2/2
f 176/2/2 175/2/2 177/2/2
f 178/1/2 179/1/2 180/1/2
f 180/1/2 179/1/2 181/1/2
f 182/1/2 183/1/2 184/1/2
f 184/1/2 183/1/2 185/1/2
f 186/1/2 187/1/2 188/1/2
f 185/1/2 186/1/2 188/1/2
f 188/1/2 187/1/2 189/1/2
f 189/1/2 187/1/2 190/1/2
f 191/1/2 192/1/2 194/1/2
f 194/1/2 192/1/2 195/1/2
f 193/1/2 194/1/2 196/1/2
f 196/1/2 194/1/2 197/1/2
f 198/1/2 199/1/2 202/1/2
f 202/1/2 199/1/2 203/1/2
f 200/1/2 201/1/2 204/1/2
f 204/1/2 201/1/2 205/1/2
f 200/1/2 204/1/2 207/1/2
f 207/1/2 204/1/2 208/1/2
f 205/1/2 206/1/2 209/1/2
f 209/1/2 206/1/2 210/1/2
f 211/2/2 212/2/2 214/2/2
f 214/2/2 212/2/2 215/2/2
f 213/2/2 214/2/2 217/2/2
f 215/2/2 216/2/2 217/2/2
f 214/2/2 215/2/2 217/2/2
f 217/2/2 216/2/2 218/2/2
f 218/2/2 216/2/2 219/2/2
f 219/2/2 216/2/2 220/2/2
f 218/2/2 219/2/2 221/2/2
f 221/2/2 219/2/2 222/2/2
f 223/1/2 224/1/2 225/1/2
f 225/1/2 224/1/2 226/1/2
f 227/2/2 228/2/2 231/2/2
f 231/2/2 228/2/2 232/2/2
f 229/2/2 230/2/2 233/2/2
f 233/2/2 230/2/2 234/2/2
f 235/2/2 236/2/2 243/2/2
f 243/2/2 236/2/2 244/2/2
f 237/2/2 238/2/2 245/2/2
f 245/2/2 238/2/2 246/2/2
f 239/2/2 240/2/2 247/2/2
f 247/2/2 240/2/2 248/2/2
f 241/2/2 242/2/2 249/2/2
f 249/2/2 242/2/2 250/2/2
f 251/2/2 252/2/2 255/2/2
f 255/2/2 252/2/2 256/2/2
f 253/2/2 254/2/2 257/2/2
f 257/2/2 254/2/2 258/2/2
f 261/2/3 260/2/3 259/2/3
f 262/2/3 260/2/3 261/2/3
f 265/2/3 264/2/3 263/2/3
f 266/2/3 264/2/3 265/2/3
f 269/2/3 268/2/3 267/2/3
f 270/2/3 268/2/3 269/2/3
f 273/2/3 272/2/3 271/2/3
f 274/2/3 272/2/3 273/2/3
f 277/2/3 276/2/3 275/2/3
f 278/2/3 276/2/3 277/2/3
f 281/2/3 280/2/3 279/2/3
f 282/2/3 280/2/3 281/2/3
f 285/2/3 284/2/3 283/2/3
f 286/2/3 284/2/3 285/2/3
f 289/2/3 288/2/3 287/2/3
f 290/2/3 288/2/3 289/2/3
f 291/2/3 288/2/3 290/2/3
f 292/2/3 288/2/3 291/2/3
f 297/2/3 294/2/3 293/2/3
f 298/2/3 294/2/3 297/2/3
f 299/2/3 296/2/3 295/2/3
f 303/2/3 299/2/3 295/2/3
f 303/1/3 300/1/3 299/1/3
f 304/1/3 300/1/3 303/1/3
f 306/1/3 302/1/3 301/1/3
f 307/1/3 302/1/3 306/1/3
f 312/2/3 309/2/3 308/2/3
f 313/2/3 309/2/3 312/2/3
f 314/1/3 305/1/3 304/1/3
f 315/1/3 305/1/3 314/1/3
f 316/1/3 311/1/3 310/1/3
f 317/1/3 311/1/3 316/1/3
f 318/2/3 303/2/3 295/2/3
f 319/2/3 303/2/3 318/2/3
f 327/2/3 321/2/3 320/2/3
f 328/2/3 321/2/3 327/2/3
f 329/1/3 326/1/3 325/1/3
f 329/1/3 325/1/3 324/1/3
f 330/1/3 326/1/3 329/1/3
f 331/1/3 326/1/3 330/1/3
f 332/1/3 323/1/3 322/1/3
f 333/1/3 323/1/3 332/1/3
f 336/2/3 335/2/3 334/2/3
f 337/2/3 335/2/3 336/2/3
f 342/1/3 339/1/3 338/1/3
f 343/1/3 339/1/3 342/1/3
f 344/1/3 339/1/3 343/1/3
f 345/1/3 341/1/3 340/1/3
f 346/1/3 341/1/3 345/1/3
f 347/1/3 341/1/3 346/1/3
f 352/2/3 349/2/3 348/2/3
f 353/2/3 349/2/3 352/2/3
f 354/1/3 351/1/3 350/1/3
f 355/1/3 351/1/3 354/1/3
f 358/1/3 357/1/3 356/1/3
f 359/1/3 357/1/3 358/1/3
f 362/1/3 361/1/3 360/1/3
f 363/1/3 361/1/3 362/1/3
f 367/1/3 366/1/3 365/1/3
f 367/1/3 365/1/3 364/1/3
f 368/1/3 366/1/3 367/1/3
f 371/2/3 370/2/3 369/2/3
f 372/2/3 370/2/3 371/2/3
f 375/2/3 374/2/3 373/2/3
f 376/2/3 374/2/3 375/2/3
f 379/2/3 378/2/3 377/2/3
f 380/2/3 378/2/3 379/2/3
f 383/2/3 382/2/3 381/2/3
f 384/2/3 382/2/3 383/2/3
f 387/2/3 386/2/3 385/2/3
f 388/2/3 386/2/3 387/2/3
f 391/2/3 390/2/3 389/2/3
f 392/2/3 390/2/3 391/2/3
f 393/2/4 394/2/4 395/2/4
f 395/2/4 394/2/4 396/2/4
f 397/2/4 398/2/4 399/2/4
f 399/2/4 398/2/4 400/2/4
f 401/2/4 402/2/4 403/2/4
f 403/2/4 402/2/4 404/2/4
f 405/2/4 406/2/4 407/2/4
f 405/2/4 407/2/4 408/2/4
f 408/2/4 407/2/4 409/2/4
f 410/2/4 411/2/4 412/2/4
f 412/2/4 411/2/4 413/2/4
f 414/2/4 415/2/4 416/2/4
f 416/2/4 415/2/4 417/2/4
f 418/1/4 419/1/4 422/1/4
f 422/1/4 419/1/4 423/1/4
f 420/1/4 421/1/4 425/1/4
f 425/1/4 421/1/4 426/1/4
f 423/1/4 424/1/4 429/1/4
f 427/2/4 428/2/4 432/2/4
f 432/2/4 428/2/4 433/2/4
f 423/1/4 429/1/4 434/1/4
f 434/1/4 429/1/4 435/1/4
f 430/1/4 431/1/4 436/1/4
f 436/1/4 431/1/4 437/1/4
f 438/1/4 439/1/4 440/1/4
f 440/1/4 439/1/4 441/1/4
f 441/1/4 442/1/4 443/1/4
f 443/1/4 442/1/4 444/1/4
f 445/1/4 446/1/4 449/1/4
f 449/1/4 446/1/4 450/1/4
f 450/1/4 446/1/4 451/1/4
f 447/1/4 448/1/4 452/1/4
f 452/1/4 448/1/4 453/1/4
f 453/1/4 448/1/4 454/1/4
f 455/1/4 456/1/4 459/1/4
f 459/1/4 456/1/4 460/1/4
f 457/1/4 458/1/4 461/1/4
f 461/1/4 458/1/4 462/1/4
f 463/2/4 464/2/4 467/2/4
f 465/1/4 466/1/4 469/1/4
f 469/1/4 466/1/4 470/1/4
f 467/1/4 468/1/4 472/1/4
f 463/2/4 467/2/4 472/2/4
f 472/1/4 468/1/4 473/1/4
f 470/1/4 471/1/4 475/1/4
f 475/1/4 471/1/4 476/1/4
f 474/1/4 475/1/4 477/1/4
f 477/1/4 475/1/4 478/1/4
f 463/2/4 472/2/4 481/2/4
f 481/2/4 472/2/4 482/2/4
f 479/1/4 480/1/4 483/1/4
f 483/1/4 480/1/4 484/1/4
f 485/2/4 486/2/4 488/2/4
f 487/2/4 488/2/4 489/2/4
f 488/2/4 486/2/4 490/2/4
f 489/2/4 488/2/4 490/2/4
f 490/2/4 486/2/4 491/2/4
f 492/2/4 493/2/4 494/2/4
f 494/2/4 493/2/4 495/2/4
f 496/2/4 497/2/4 498/2/4
f 498/2/4 497/2/4 499/2/4
f 500/2/4 501/2/4 502/2/4
f 502/2/4 501/2/4 503/2/4
f 504/2/4 505/2/4 506/2/4
f 506/2/4 505/2/4 507/2/4
f 508/2/4 509/2/4 510/2/4
f 510/2/4 509/2/4 511/2/4
f 512/2/4 513/2/4 514/2/4
f 514/2/4 513/2/4 515/2/4
f 521/2/5 517/2/5 516/2/5
f 522/2/5 517/2/5 521/2/5
f 525/2/5 519/2/5 518/2/5
f 526/2/5 519/2/5 525/2/5
f 529/2/5 523/2/5 522/2/5
f 529/2/5 521/2/5 520/2/5
f 529/2/5 522/2/5 521/2/5
f 530/2/5 523/2/5 529/2/5
f 531/2/5 523/2/5 530/2/5
f 532/2/5 527/2/5 526/2/5
f 532/2/5 526/2/5 525/2/5
f 532/2/5 525/2/5 524/2/5
f 533/2/5 527/2/5 532/2/5
f 534/2/5 530/2/5 529/2/5
f 534/2/5 529/2/5 528/2/5
f 535/2/5 530/2/5 534/2/5
f 536/2/5 527/2/5 533/2/5
f 537/2/5 527/2/5 536/2/5
f 540/2/5 534/2/5 528/2/5
f 541/2/5 534/2/5 540/2/5
f 542/2/5 534/2/5 541/2/5
f 543/2/5 538/2/5 537/2/5
f 544/2/5 538/2/5 543/2/5
f 545/2/5 541/2/5 540/2/5
f 545/2/5 540/2/5 539/2/5
f 546/2/5 541/2/5 545/2/5
f 548/2/5 545/2/5 544/2/5
f 549/2/5 545/2/5 548/2/5
f 550/2/5 541/2/5 546/2/5
f 552/2/5 549/2/5 548/2/5
f 552/2/5 550/2/5 549/2/5
f 552/2/5 548/2/5 547/2/5
f 553/2/5 541/2/5 550/2/5
f 553/2/5 550/2/5 552/2/5
f 556/2/5 552/2/5 551/2/5
f 556/2/5 554/2/5 553/2/5
f 556/2/5 553/2/5 552/2/5
f 557/2/5 554/2/5 556/2/5
f 558/2/5 554/2/5 557/2/5
f 559/2/5 554/2/5 558/2/5
f 562/2/5 556/2/5 555/2/5
f 562/2/5 557/2/5 556/2/5
f 563/2/5 559/2/5 558/2/5
f 563/2/5 560/2/5 559/2/5
f 565/2/5 562/2/5 561/2/5
f 566/2/5 557/2/5 562/2/5
f 566/2/5 562/2/5 565/2/5
f 567/2/5 557/2/5 566/2/5
f 568/2/5 557/2/5 567/2/5
f 569/2/5 563/2/5 558/2/5
f 569/2/5 564/2/5 563/2/5
f 570/2/5 564/2/5 569/2/5
f 571/2/5 564/2/5 570/2/5
f 572/2/5 564/2/5 571/2/5
f 573/2/5 567/2/5 566/2/5
f 574/2/5 567/2/5 573/2/5
f 575/2/5 571/2/5 570/2/5
f 576/2/5 571/2/5 575/2/5
f 580/2/5 578/2/5 577/2/5
f 581/2/5 578/2/5 580/2/5
f 582/2/5 578/2/5 581/2/5
f 583/2/5 578/2/5 582/2/5
f 584/2/5 580/2/5 579/2/5
f 585/2/5 582/2/5 581/2/5
f 586/2/5 582/2/5 585/2/5
f 588/2/5 584/2/5 579/2/5
f 588/2/5 585/2/5 584/2/5
f 589/2/5 585/2/5 588/2/5
f 590/2/5 587/2/5 586/2/5
f 591/2/5 587/2/5 590/2/5
f 592/2/5 588/2/5 579/2/5
f 593/2/5 588/2/5 592/2/5
f 596/1/5 595/1/5 594/1/5
f 597/1/5 595/1/5 596/1/5
f 600/1/5 599/1/5 598/1/5
f 601/1/5 599/1/5 600/1/5
f 606/1/5 603/1/5 602/1/5
f 607/1/5 603/1/5 606/1/5
f 608/1/5 605/1/5 604/1/5
f 609/1/5 605/1/5 608/1/5
f 614/1/5 611/1/5 610/1/5
f 615/1/5 611/1/5 614/1/5
f 616/1/5 613/1/5 612/1/5
f 619/1/5 613/1/5 616/1/5
f 620/1/5 613/1/5 619/1/5
f 621/1/5 618/1/5 617/1/5
f 621/1/5 619/1/5 618/1/5
f 622/1/5 619/1/5 621/1/5
f 623/1/5 619/1/5 622/1/5
f 624/1/5 623/1/5 622/1/5
f 625/1/5 623/1/5 624/1/5
f 628/1/5 627/1/5 626/1/5
f 629/1/5 627/1/5 628/1/5
f 631/1/5 630/1/5 629/1/5
f 632/1/5 630/1/5 631/1/5
f 633/2/6 634/2/6 638/2/6
f 638/2/6 634/2/6 639/2/6
f 635/2/6 636/2/6 642/2/6
f 642/2/6 636/2/6 643/2/6
f 639/2/6 640/2/6 646/2/6
f 637/2/6 638/2/6 646/2/6
f 638/2/6 639/2/6 646/2/6
f 646/2/6 640/2/6 647/2/6
f 647/2/6 640/2/6 648/2/6
f 643/2/6 644/2/6 649/2/6
f 642/2/6 643/2/6 649/2/6
f 641/2/6 642/2/6 649/2/6
f 649/2/6 644/2/6 650/2/6
f 650/2/6 644/2/6 651/2/6
f 651/2/6 644/2/6 652/2/6
f 646/2/6 647/2/6 653/2/6
f 645/2/6 646/2/6 653/2/6
f 653/2/6 647/2/6 654/2/6
f 654/2/6 647/2/6 655/2/6
f 655/2/6 647/2/6 656/2/6
f 650/2/6 651/2/6 657/2/6
f 657/2/6 651/2/6 658/2/6
f 654/2/6 655/2/6 659/2/6
f 659/2/6 655/2/6 660/2/6
f 661/2/6 662/2/6 666/2/6
f 666/2/6 662/2/6 667/2/6
f 664/2/6 665/2/6 670/2/6
f 663/2/6 664/2/6 670/2/6
f 666/2/6 667/2/6 671/2/6
f 667/2/6 668/2/6 671/2/6
f 669/2/6 670/2/6 673/2/6
f 670/2/6 665/2/6 674/2/6
f 673/2/6 670/2/6 674/2/6
f 674/2/6 665/2/6 675/2/6
f 675/2/6 665/2/6 676/2/6
f 666/2/6 671/2/6 677/2/6
f 671/2/6 672/2/6 677/2/6
f 677/2/6 672/2/6 678/2/6
f 678/2/6 672/2/6 679/2/6
f 679/2/6 672/2/6 680/2/6
f 674/2/6 675/2/6 681/2/6
f 681/2/6 675/2/6 682/2/6
f 678/2/6 679/2/6 683/2/6
f 683/2/6 679/2/6 684/2/6
f 685/2/6 686/2/6 687/2/6
f 687/2/6 686/2/6 688/2/6
f 685/2/6 687/2/6 689/2/6
f 685/2/6 689/2/6 691/2/6
f 689/2/6 690/2/6 691/2/6
f 691/2/6 690/2/6 692/2/6
f 693/2/6 694/2/6 697/2/6
f 695/2/6 696/2/6 698/2/6
f 698/2/6 696/2/6 699/2/6
f 693/2/6 697/2/6 700/2/6
f 697/2/6 698/2/6 700/2/6
f 700/2/6 698/2/6 701/2/6
f 693/2/6 700/2/6 702/2/6
f 699/2/6 696/2/6 705/2/6
f 693/2/6 702/2/6 706/2/6
f 702/2/6 703/2/6 706/2/6
f 706/2/6 703/2/6 707/2/6
f 704/2/6 705/2/6 708/2/6
f 705/2/6 696/2/6 709/2/6
f 708/2/6 705/2/6 709/2/6
f 710/1/6 711/1/6 712/1/6
f 712/1/6 711/1/6 713/1/6
f 713/1/6 714/1/6 715/1/6
f 715/1/6 714/1/6 716/1/6
f 716/1/6 714/1/6 717/1/6
f 717/1/6 714/1/6 718/1/6
f 716/1/6 717/1/6 719/1/6
f 719/1/6 717/1/6 720/1/6
f 721/1/6 722/1/6 723/1/6
f 723/1/6 722/1/6 724/1/6
f 724/1/6 722/1/6 725/1/6
f 726/1/6 727/1/6 728/1/6
f 728/1/6 727/1/6 729/1/6
f 730/1/6 731/1/6 734/1/6
f 734/1/6 731/1/6 735/1/6
f 732/1/6 733/1/6 736/1/6
f 736/1/6 733/1/6 737/1/6
f 738/1/6 739/1/6 740/1/6
f 740/1/6 739/1/6 741/1/6
f 742/1/6 743/1/6 744/1/6
f 741/1/6 742/1/6 744/1/6
f 744/1/6 743/1/6 745/1/6
f 745/1/6 743/1/6 746/1/6
f 744/1/6 745/1/6 747/1/6
f 747/1/6 745/1/6 748/1/6
f 747/1/6 748/1/6 749/1/6
f 749/1/6 748/1/6 750/1/6
f 751/1/6 752/1/6 753/1/6
f 753/1/6 752/1/6 754/1/6
f 755/1/6 756/1/6 759/1/6
f 759/1/6 756/1/6 760/1/6
f 757/1/6 758/1/6 761/1/6
f 761/1/6 758/1/6 762/1/6
f 763/1/6 764/1/6 765/1/6
f 765/1/6 764/1/6 766/1/6
