# MagicaVoxel @ Ephtracy

# group
g GameBoy

# material
mtllib GameBoy.mtl
usemtl palette

# normals
vn -1 0 0
vn 1 0 0
vn 0 0 1
vn 0 0 -1
vn 0 -1 0
vn 0 1 0

# texcoords
vt 0.0175781 0.5
vt 0.509766 0.5
vt 0.853516 0.5
vt 0.970703 0.5
vt 0.978516 0.5
vt 0.986328 0.5
vt 0.994141 0.5

# verts
v -10 0 1
v -10 0 -2
v -10 11 -0
v -10 11 -1
v -10 14 -0
v -10 14 -1
v -10 16 1
v -10 16 -2
v -1 0 1
v -1 0 -2
v -1 1 1
v -1 1 -2
v 0 1 1
v 0 1 -2
v 0 12 -0
v 0 12 -1
v 0 14 -0
v 0 14 -1
v 0 16 1
v 0 16 -2
v -10 0 1
v -10 16 1
v -9 4 1
v -9 5 1
v -9 8 1
v -9 14 1
v -8 3 1
v -8 4 1
v -8 5 1
v -8 6 1
v -8 9 1
v -8 13 1
v -7 3 1
v -7 4 1
v -7 5 1
v -7 6 1
v -6 1 1
v -6 2 1
v -6 4 1
v -6 5 1
v -5 1 1
v -5 2 1
v -4 1 1
v -4 2 1
v -4 4 1
v -4 5 1
v -3 1 1
v -3 2 1
v -3 4 1
v -3 5 1
v -2 5 1
v -2 6 1
v -2 9 1
v -2 13 1
v -1 0 1
v -1 1 1
v -1 5 1
v -1 6 1
v -1 8 1
v -1 14 1
v 0 1 1
v 0 16 1
v -10 0 -2
v -10 16 -2
v -8 13 -2
v -8 16 -2
v -2 13 -2
v -2 16 -2
v -1 0 -2
v -1 1 -2
v 0 1 -2
v 0 16 -2
v -10 0 1
v -1 0 1
v -10 0 -2
v -1 0 -2
v -1 1 1
v 0 1 1
v -1 1 -2
v 0 1 -2
v -10 16 1
v 0 16 1
v -8 16 -1
v -2 16 -1
v -10 16 -2
v -8 16 -2
v -2 16 -2
v 0 16 -2

# faces
f 3/4/1 2/4/1 1/4/1
f 4/4/1 2/4/1 3/4/1
f 5/4/1 3/4/1 1/4/1
f 5/7/1 4/7/1 3/7/1
f 6/4/1 2/4/1 4/4/1
f 6/7/1 4/7/1 5/7/1
f 7/4/1 5/4/1 1/4/1
f 7/4/1 6/4/1 5/4/1
f 8/4/1 2/4/1 6/4/1
f 8/4/1 6/4/1 7/4/1
f 9/4/2 10/4/2 11/4/2
f 11/4/2 10/4/2 12/4/2
f 13/4/2 14/4/2 15/4/2
f 15/4/2 14/4/2 16/4/2
f 13/4/2 15/4/2 17/4/2
f 15/7/2 16/7/2 17/7/2
f 16/4/2 14/4/2 18/4/2
f 17/7/2 16/7/2 18/7/2
f 13/4/2 17/4/2 19/4/2
f 17/4/2 18/4/2 19/4/2
f 18/4/2 14/4/2 20/4/2
f 19/4/2 18/4/2 20/4/2
f 23/4/3 22/4/3 21/4/3
f 24/4/3 22/4/3 23/4/3
f 25/4/3 22/4/3 24/4/3
f 26/4/3 22/4/3 25/4/3
f 27/4/3 23/4/3 21/4/3
f 28/7/3 24/7/3 23/7/3
f 28/4/3 23/4/3 27/4/3
f 29/4/3 25/4/3 24/4/3
f 29/7/3 24/7/3 28/7/3
f 30/4/3 25/4/3 29/4/3
f 31/6/3 26/6/3 25/6/3
f 32/6/3 26/6/3 31/6/3
f 33/4/3 27/4/3 21/4/3
f 33/7/3 28/7/3 27/7/3
f 33/7/3 29/7/3 28/7/3
f 33/7/3 30/7/3 29/7/3
f 34/7/3 30/7/3 33/7/3
f 35/7/3 30/7/3 34/7/3
f 36/4/3 25/4/3 30/4/3
f 36/7/3 30/7/3 35/7/3
f 37/4/3 33/4/3 21/4/3
f 37/4/3 34/4/3 33/4/3
f 38/4/3 34/4/3 37/4/3
f 39/7/3 35/7/3 34/7/3
f 39/4/3 34/4/3 38/4/3
f 40/4/3 36/4/3 35/4/3
f 40/7/3 35/7/3 39/7/3
f 41/5/3 38/5/3 37/5/3
f 41/4/3 37/4/3 21/4/3
f 42/4/3 39/4/3 38/4/3
f 42/5/3 38/5/3 41/5/3
f 42/4/3 40/4/3 39/4/3
f 43/4/3 41/4/3 21/4/3
f 43/4/3 42/4/3 41/4/3
f 44/4/3 40/4/3 42/4/3
f 44/4/3 42/4/3 43/4/3
f 45/4/3 40/4/3 44/4/3
f 46/4/3 36/4/3 40/4/3
f 46/4/3 40/4/3 45/4/3
f 47/4/3 43/4/3 21/4/3
f 47/5/3 44/5/3 43/5/3
f 48/4/3 45/4/3 44/4/3
f 48/5/3 44/5/3 47/5/3
f 49/3/3 46/3/3 45/3/3
f 49/4/3 45/4/3 48/4/3
f 50/4/3 36/4/3 46/4/3
f 50/3/3 46/3/3 49/3/3
f 51/4/3 49/4/3 48/4/3
f 51/4/3 36/4/3 50/4/3
f 51/4/3 50/4/3 49/4/3
f 51/4/3 48/4/3 47/4/3
f 52/4/3 25/4/3 36/4/3
f 52/4/3 36/4/3 51/4/3
f 53/2/3 32/2/3 31/2/3
f 53/6/3 31/6/3 25/6/3
f 54/6/3 26/6/3 32/6/3
f 54/2/3 32/2/3 53/2/3
f 55/4/3 47/4/3 21/4/3
f 55/4/3 51/4/3 47/4/3
f 56/4/3 51/4/3 55/4/3
f 57/3/3 52/3/3 51/3/3
f 57/4/3 51/4/3 56/4/3
f 58/4/3 25/4/3 52/4/3
f 58/3/3 52/3/3 57/3/3
f 59/6/3 53/6/3 25/6/3
f 59/4/3 25/4/3 58/4/3
f 59/6/3 54/6/3 53/6/3
f 60/4/3 22/4/3 26/4/3
f 60/6/3 54/6/3 59/6/3
f 60/6/3 26/6/3 54/6/3
f 61/4/3 59/4/3 58/4/3
f 61/4/3 58/4/3 57/4/3
f 61/4/3 60/4/3 59/4/3
f 61/4/3 57/4/3 56/4/3
f 62/4/3 22/4/3 60/4/3
f 62/4/3 60/4/3 61/4/3
f 63/4/4 64/4/4 65/4/4
f 65/4/4 64/4/4 66/4/4
f 63/4/4 65/4/4 67/4/4
f 65/1/4 66/1/4 67/1/4
f 67/1/4 66/1/4 68/1/4
f 63/4/4 67/4/4 69/4/4
f 67/4/4 68/4/4 69/4/4
f 69/4/4 68/4/4 70/4/4
f 70/4/4 68/4/4 71/4/4
f 71/4/4 68/4/4 72/4/4
f 75/4/5 74/4/5 73/4/5
f 76/4/5 74/4/5 75/4/5
f 79/4/5 78/4/5 77/4/5
f 80/4/5 78/4/5 79/4/5
f 81/4/6 82/4/6 83/4/6
f 83/4/6 82/4/6 84/4/6
f 81/4/6 83/4/6 85/4/6
f 83/1/6 84/1/6 86/1/6
f 85/4/6 83/4/6 86/4/6
f 84/4/6 82/4/6 87/4/6
f 86/1/6 84/1/6 87/1/6
f 87/4/6 82/4/6 88/4/6
